<?xml version="1.0" encoding="utf-8"?>
<!-- Generator: Adobe Illustrator 27.5.0, SVG Export Plug-In . SVG Version: 6.00 Build 0)  -->
<svg version="1.1" xmlns="http://www.w3.org/2000/svg" xmlns:xlink="http://www.w3.org/1999/xlink" x="0px" y="0px"
	 viewBox="0 0 500 500" style="enable-background:new 0 0 500 500;" xml:space="preserve">
<g id="BACKGROUND">
</g>
<g id="OBJECTS">
	<g>
		<g>
			<g>
				<g>
					<path d="M73.671,245.212c-0.098-0.028,0.251-1.576,0.965-4.35c0.714-2.774,1.793-6.775,3.157-11.711
						c1.385-4.931,3.033-10.8,4.864-17.317c0.931-3.255,1.909-6.672,2.922-10.214c0.517-1.774,1.079-3.619,1.981-5.394
						c0.899-1.788,2.193-3.378,3.613-4.779c1.425-1.41,2.929-2.638,4.37-3.873c1.45-1.231,2.879-2.444,4.283-3.636
						c2.813-2.378,5.527-4.672,8.112-6.857c5.19-4.346,9.864-8.259,13.791-11.547c3.94-3.27,7.145-5.898,9.381-7.688
						c2.236-1.79,3.504-2.744,3.57-2.666c0.066,0.077-1.076,1.178-3.198,3.103c-2.122,1.924-5.224,4.672-9.077,8.044
						c-3.868,3.356-8.473,7.351-13.586,11.787c-2.567,2.206-5.262,4.522-8.056,6.922c-1.399,1.198-2.823,2.416-4.269,3.653
						c-1.444,1.243-2.931,2.463-4.284,3.803c-1.356,1.339-2.528,2.785-3.346,4.401c-0.83,1.62-1.381,3.378-1.901,5.133
						c-1.041,3.533-2.046,6.94-3.003,10.186c-1.945,6.484-3.696,12.323-5.167,17.229c-1.492,4.898-2.723,8.855-3.606,11.58
						C74.303,243.747,73.768,245.24,73.671,245.212z"/>
				</g>
			</g>
		</g>
		<g>
			<g>
				<g>
					<path d="M152.05,349.908c-0.152,0.048-0.613-2.048-2.432-5.374c-0.94-1.641-2.221-3.578-3.976-5.617
						c-1.748-2.043-3.953-4.185-6.563-6.352c-2.608-2.173-5.617-4.371-8.935-6.62c-3.343-2.24-6.838-4.803-10.327-7.709
						c-6.983-5.811-14-13.031-20.175-21.531c-3.072-4.258-5.737-8.699-7.709-13.27c-1.997-4.555-3.394-9.162-4.357-13.614
						c-0.957-4.455-1.525-8.757-1.754-12.793c-0.25-4.035-0.28-7.803-0.123-11.231c0.269-6.861,1.024-12.366,1.632-16.144
						c0.291-1.893,0.587-3.35,0.791-4.337c0.206-0.987,0.339-1.5,0.389-1.492c0.118,0.02-0.178,2.115-0.612,5.907
						c-0.432,3.79-1.025,9.288-1.159,16.096c-0.089,3.402,0.002,7.131,0.3,11.114c0.279,3.984,0.885,8.217,1.862,12.588
						c0.982,4.368,2.379,8.874,4.351,13.322c1.945,4.46,4.558,8.796,7.585,12.992c6.092,8.384,12.997,15.552,19.853,21.353
						c3.432,2.906,6.845,5.466,10.149,7.743c3.305,2.305,6.313,4.577,8.914,6.831c2.604,2.249,4.799,4.484,6.522,6.619
						c1.73,2.131,2.97,4.159,3.85,5.875c0.852,1.733,1.355,3.151,1.616,4.129C151.992,349.377,152.099,349.895,152.05,349.908z"/>
				</g>
			</g>
		</g>
		<g>
			<g>
				<g>
					<path d="M185.693,333.828c-0.21,0.017-0.658-3.58-1.416-9.381c-0.79-5.791-1.792-13.825-3.682-22.506
						c-1.753-8.711-5.409-15.943-8.228-21.032c-2.857-5.083-4.85-8.118-4.66-8.246c0.08-0.055,0.681,0.631,1.662,1.949
						c0.979,1.319,2.348,3.266,3.896,5.771c1.539,2.508,3.275,5.569,4.862,9.144c1.611,3.553,2.979,7.699,3.906,12.095
						c1.913,8.794,2.75,16.872,3.279,22.713C185.807,330.182,185.888,333.813,185.693,333.828z"/>
				</g>
			</g>
		</g>
		<g>
			<g>
				<g>
					<path d="M210.384,383.405c-0.115,0.057-0.47-0.73-1.619-1.699c-0.563-0.496-1.33-1.021-2.197-1.73
						c-0.431-0.358-0.884-0.771-1.306-1.28c-0.386-0.49-0.795-1.008-1.224-1.551c-3.42-4.343-7.644-10.789-11.177-18.482
						c-3.516-7.7-5.67-15.098-6.729-20.524c-0.276-1.356-0.504-2.585-0.655-3.674c-0.167-1.086-0.304-2.02-0.366-2.792
						c-0.149-1.539-0.183-2.394-0.082-2.408c0.233-0.033,0.786,3.33,2.118,8.643c1.308,5.315,3.587,12.551,7.052,20.141
						c3.483,7.583,7.502,14.017,10.675,18.476c0.394,0.559,0.77,1.091,1.125,1.595c0.343,0.467,0.731,0.873,1.116,1.242
						c0.775,0.733,1.516,1.345,2.049,1.933C210.263,382.464,210.458,383.391,210.384,383.405z"/>
				</g>
			</g>
		</g>
		<g>
			<g>
				<g>
					<path d="M261.218,136.799c0.012,0.049-0.431,0.221-1.284,0.502c-0.856,0.27-2.116,0.676-3.729,1.223
						c-3.231,1.082-7.861,2.772-13.561,4.954c-5.715,2.134-12.474,4.856-20.313,7.024c-0.977,0.276-1.986,0.499-2.996,0.754
						c-1.015,0.238-2.058,0.423-3.104,0.64c-2.117,0.342-4.291,0.617-6.512,0.699c-4.442,0.226-9.038-0.069-13.684-0.635
						c-9.293-1.146-17.972-3.021-25.97-3.637c-7.984-0.67-15.255-0.198-21.138,1.18c-5.898,1.341-10.358,3.523-13.197,5.351
						c-0.7,0.477-1.322,0.9-1.861,1.268c-0.54,0.368-0.953,0.738-1.315,1.002c-0.71,0.546-1.102,0.817-1.137,0.78
						c-0.035-0.037,0.29-0.381,0.944-1.005c0.334-0.303,0.721-0.714,1.24-1.123c0.525-0.405,1.129-0.872,1.81-1.397
						c2.785-2.006,7.281-4.388,13.273-5.888c5.977-1.538,13.381-2.125,21.485-1.521c8.121,0.553,16.849,2.397,26.041,3.528
						c4.597,0.56,9.107,0.857,13.442,0.656c2.17-0.071,4.283-0.327,6.338-0.644c1.023-0.206,2.041-0.378,3.039-0.603
						c0.995-0.244,1.985-0.453,2.951-0.716c7.748-2.064,14.543-4.68,20.303-6.69c5.748-2.057,10.454-3.607,13.751-4.524
						c1.647-0.465,2.937-0.784,3.821-0.962C260.738,136.825,261.206,136.749,261.218,136.799z"/>
				</g>
			</g>
		</g>
		<g>
			<g>
				<g>
					<path d="M283.926,132.541c-0.002,0.103-0.74,0.219-2.048,0.354c-0.656,0.105-1.455,0.234-2.382,0.382
						c-0.923,0.193-1.978,0.368-3.137,0.622c-4.637,0.993-10.995,2.643-17.955,4.707c-6.966,2.042-13.226,4.061-17.757,5.525
						c-4.531,1.464-7.33,2.393-7.409,2.196c-0.073-0.18,2.602-1.456,7.061-3.177c4.458-1.721,10.69-3.905,17.69-5.957
						c6.992-2.073,13.442-3.577,18.183-4.318c1.184-0.191,2.269-0.297,3.214-0.414c0.955-0.069,1.779-0.11,2.449-0.138
						C283.192,132.361,283.929,132.441,283.926,132.541z"/>
				</g>
			</g>
		</g>
		<g>
			<g>
				<g>
					<path d="M402.605,173.876c-0.223,0.08-1.611-3.805-4.132-9.923c-1.292-3.041-2.912-6.634-5.183-10.331
						c-2.251-3.694-5.256-7.458-9.146-10.549c-3.884-3.086-8.295-5.052-12.543-5.661c-2.13-0.338-4.219-0.503-6.177-0.819
						c-1.963-0.31-3.773-0.794-5.356-1.383c-3.185-1.164-5.497-2.68-6.984-3.816c-1.483-1.157-2.17-1.941-2.111-2.007
						c0.075-0.087,0.887,0.547,2.44,1.537c1.557,0.971,3.883,2.304,6.995,3.301c1.552,0.507,3.289,0.911,5.193,1.159
						c1.907,0.257,3.989,0.374,6.204,0.686c4.475,0.561,9.206,2.622,13.253,5.848c4.065,3.229,7.146,7.169,9.394,11.002
						c2.266,3.835,3.808,7.529,4.989,10.648c1.164,3.129,1.97,5.7,2.497,7.485C402.462,172.84,402.7,173.844,402.605,173.876z"/>
				</g>
			</g>
		</g>
		<g>
			<g>
				<g>
					<path d="M413.455,212.211c-0.234-0.028-0.067-1.713-0.43-4.344c-0.342-2.636-1.374-6.163-3.708-9.514
						c-0.562-0.869-1.124-1.75-1.575-2.678c-0.45-0.928-0.775-1.867-1.008-2.771c-0.464-1.813-0.589-3.476-0.624-4.853
						c-0.035-2.758,0.197-4.43,0.384-4.435c0.219-0.006,0.358,1.69,0.655,4.361c0.164,1.33,0.393,2.906,0.892,4.561
						c0.25,0.826,0.572,1.669,0.993,2.494c0.422,0.825,0.957,1.652,1.521,2.523c1.164,1.728,2.117,3.618,2.652,5.387
						c0.56,1.774,0.802,3.439,0.856,4.833C414.168,210.576,413.62,212.244,413.455,212.211z"/>
				</g>
			</g>
		</g>
		<g>
			<g>
				<g>
					<path d="M415.222,226.058c-0.417-0.115,0.227-3.152-0.374-6.813c-0.542-3.671-2.081-6.368-1.718-6.604
						c0.159-0.106,0.772,0.445,1.46,1.564c0.688,1.113,1.399,2.821,1.712,4.813c0.308,1.993,0.151,3.837-0.166,5.106
						C415.822,225.399,415.405,226.111,415.222,226.058z"/>
				</g>
			</g>
		</g>
		<g>
			<g>
				<g>
					<path d="M418.271,239.107c-0.42-0.093-0.024-2.865-0.788-6.115c-0.709-3.263-2.259-5.594-1.92-5.859
						c0.15-0.119,0.759,0.324,1.471,1.286c0.711,0.955,1.478,2.458,1.885,4.248c0.403,1.792,0.358,3.478,0.127,4.646
						C418.817,238.488,418.458,239.149,418.271,239.107z"/>
				</g>
			</g>
		</g>
		<g>
			<g>
				<g>
					<path d="M418.124,256.585c-0.199-0.054-0.129-0.963,0.098-2.382c0.221-1.42,0.602-3.35,0.822-5.473
						c0.223-2.124,0.156-4.031-0.049-5.406c-0.192-1.375-0.429-2.239-0.226-2.33c0.164-0.08,0.757,0.66,1.239,2.092
						c0.253,0.712,0.42,1.596,0.531,2.583c0.084,0.988,0.081,2.08-0.03,3.208c-0.235,2.257-0.796,4.21-1.278,5.583
						C418.74,255.832,418.317,256.638,418.124,256.585z"/>
				</g>
			</g>
		</g>
		<g>
			<g>
				<g>
					<path d="M67.587,321.903c-0.047-0.02,0.041-0.37,0.25-1.014c0.217-0.642,0.543-1.583,0.914-2.811
						c0.755-2.447,1.733-6.028,2.434-10.549c0.704-4.519,1.151-9.96,1.191-16.021c0.022-3.027-0.012-6.221-0.146-9.509
						c-0.165-3.307-0.337-6.732-0.512-10.239c-0.308-7.041-0.118-13.794,0.583-19.877c0.68-6.089,1.86-11.491,3.076-15.951
						c0.66-2.217,1.22-4.232,1.871-5.951c0.615-1.73,1.126-3.225,1.657-4.404c1.005-2.38,1.604-3.673,1.698-3.634
						c0.094,0.039-0.325,1.404-1.161,3.833c-0.447,1.204-0.875,2.717-1.411,4.459c-0.573,1.73-1.058,3.749-1.647,5.962
						c-1.076,4.451-2.136,9.809-2.734,15.831c-0.619,6.019-0.767,12.68-0.461,19.675c0.165,3.508,0.327,6.934,0.482,10.242
						c0.116,3.331,0.121,6.528,0.062,9.586c-0.115,6.112-0.675,11.619-1.521,16.175c-0.842,4.56-1.989,8.15-2.918,10.562
						c-0.458,1.211-0.874,2.126-1.181,2.734C67.812,321.613,67.633,321.923,67.587,321.903z"/>
				</g>
			</g>
		</g>
		<g>
			<g>
				<g>
					<path d="M80.233,274.986c0.228,0.096-0.856,2.605-1.548,6.903c-0.362,2.143-0.605,4.727-0.763,7.614
						c-0.163,2.888-0.238,6.084-0.468,9.456c-0.242,3.38-0.724,6.601-1.493,9.461c-0.778,2.857-1.817,5.352-3.005,7.268
						c-1.177,1.92-2.398,3.296-3.349,4.112c-0.943,0.824-1.545,1.173-1.599,1.105c-0.193-0.202,2.024-1.904,4.042-5.731
						c1.021-1.894,1.916-4.316,2.596-7.09c0.672-2.779,1.101-5.914,1.339-9.229c0.228-3.327,0.344-6.528,0.584-9.444
						c0.235-2.916,0.591-5.548,1.095-7.721C78.642,277.32,80.095,274.906,80.233,274.986z"/>
				</g>
			</g>
		</g>
		<g>
			<g>
				<g>
					<path d="M85.763,256.693c0.084,0.061-0.054,0.456-0.338,1.109c-0.25,0.682-0.619,1.652-1.001,2.893
						c-0.777,2.472-1.697,5.952-2.642,9.825c-1.877,7.748-3.41,14.064-3.834,13.975c-0.371-0.077,0.513-6.516,2.404-14.327
						c0.952-3.901,2.045-7.392,3.096-9.837c0.518-1.224,1.052-2.176,1.471-2.8C85.382,256.922,85.684,256.635,85.763,256.693z"/>
				</g>
			</g>
		</g>
		<g>
			<g>
				<g>
					<path d="M61.509,345.903c-0.197,0.018-0.539-1.424-0.859-3.799c-0.302-2.368-0.602-5.717-0.111-9.422
						c0.491-3.709,1.884-6.919,3.359-8.887c1.463-1.995,2.8-2.797,2.905-2.661c0.159,0.17-0.883,1.22-2.031,3.228
						c-1.166,1.99-2.306,5.013-2.773,8.519c-0.468,3.512-0.347,6.776-0.31,9.145C61.741,344.398,61.717,345.884,61.509,345.903z"/>
				</g>
			</g>
		</g>
		<g>
			<g>
				<g>
					<path d="M68.061,321.32c0.188-0.004,0.437,1.437,0.457,3.797c0.014,2.353-0.274,5.648-1.253,9.141
						c-0.984,3.489-2.382,6.451-3.49,8.515c-1.121,2.063-1.957,3.254-2.132,3.165c-0.188-0.095,0.32-1.455,1.189-3.607
						c0.857-2.155,2.067-5.108,3.015-8.469C67.737,327.127,67.576,321.316,68.061,321.32z"/>
				</g>
			</g>
		</g>
		<g>
			<g>
				<g>
					<path d="M81.438,387.7c-0.041,0.023-0.241-0.233-0.549-0.77c-0.302-0.538-0.689-1.371-1.02-2.505
						c-0.668-2.239-1.024-5.822,0.313-9.891c0.65-2.023,1.693-4.093,2.872-6.231c1.19-2.134,2.432-4.388,3.639-6.829
						c2.408-4.868,4.711-10.411,6.222-16.473c0.751-3.031,1.272-6.033,1.535-8.966c0.272-2.935,0.367-5.795,0.466-8.528
						c0.168-5.464,0.486-10.457,1.419-14.55c0.893-4.1,2.306-7.242,3.523-9.238c1.239-1.994,2.172-2.907,2.231-2.856
						c0.099,0.075-0.674,1.103-1.731,3.135c-1.037,2.038-2.26,5.14-3.004,9.167c-0.781,4.022-0.989,8.912-1.083,14.381
						c-0.062,2.736-0.127,5.622-0.386,8.619c-0.249,3-0.775,6.093-1.543,9.192c-1.547,6.205-3.933,11.831-6.439,16.728
						c-2.462,4.938-5.391,8.977-6.738,12.788c-1.389,3.806-1.218,7.215-0.742,9.414C80.905,386.513,81.559,387.641,81.438,387.7z"/>
				</g>
			</g>
		</g>
		<g>
			<g>
				<g>
					<path d="M122.475,410.318c-0.139-0.039,0.335-1.164,0.262-3.257c-0.041-2.095-0.864-5.046-2.607-8.412
						c-0.836-1.703-1.851-3.55-2.679-5.701c-0.843-2.145-1.328-4.649-1.313-7.241c0-5.234,1.645-10.645,3.025-16.282
						c1.443-5.655,2.982-11.022,4.699-15.803c1.72-4.78,3.614-8.969,5.491-12.329c1.874-3.365,3.697-5.902,5.037-7.578
						c1.375-1.653,2.21-2.497,2.28-2.437c0.218,0.17-2.933,3.746-6.399,10.506c-1.733,3.372-3.499,7.538-5.13,12.287
						c-1.627,4.752-3.114,10.082-4.552,15.721c-1.39,5.651-3.034,10.995-3.094,15.923c-0.047,2.461,0.353,4.756,1.101,6.811
						c0.738,2.064,1.687,3.926,2.474,5.677c1.655,3.478,2.384,6.664,2.24,8.86c-0.043,1.096-0.252,1.932-0.444,2.47
						C122.675,410.075,122.516,410.334,122.475,410.318z"/>
				</g>
			</g>
		</g>
		<g>
			<g>
				<g>
					<path d="M77.891,405.175c-0.087,0.04-0.327-0.194-0.547-0.747c-0.227-0.55-0.335-1.441-0.234-2.456
						c0.123-2.059,1.043-4.694,1.891-7.52c0.426-1.419,0.788-2.769,1.031-4.004c0.235-1.236,0.318-2.349,0.324-3.288
						c-0.042-1.87-0.559-2.973-0.346-3.088c0.127-0.101,1.047,0.915,1.383,2.996c0.137,1.023,0.155,2.26-0.021,3.595
						c-0.183,1.331-0.523,2.757-0.96,4.211c-0.878,2.914-1.91,5.387-2.272,7.254C77.655,403.967,78.083,405.078,77.891,405.175z"/>
				</g>
			</g>
		</g>
		<g>
			<g>
				<g>
					<path d="M123.011,407.916c0.076,0.013,0.094,0.769-0.395,2.046c-0.262,0.627-0.686,1.375-1.368,2.089
						c-0.68,0.713-1.608,1.361-2.672,1.916c-0.532,0.284-1.097,0.544-1.682,0.811c-0.57,0.271-1.274,0.537-1.958,0.712
						c-1.393,0.371-2.896,0.544-4.469,0.637c-1.573,0.087-3.219,0.08-4.912,0.024c-1.689-0.051-3.466-0.169-5.26-0.392
						c-7.224-0.846-13.43-3.542-17.336-6.218c-3.934-2.689-5.79-5.006-5.675-5.108c0.169-0.185,2.269,1.841,6.231,4.228
						c3.946,2.379,9.952,4.812,16.963,5.637c1.75,0.216,3.455,0.341,5.132,0.411c1.672,0.076,3.277,0.109,4.797,0.063
						c1.517-0.053,2.954-0.177,4.236-0.467c0.654-0.145,1.208-0.324,1.806-0.572c0.589-0.236,1.151-0.46,1.667-0.699
						c1.038-0.469,1.904-0.994,2.562-1.575c0.657-0.582,1.105-1.205,1.424-1.748C122.708,408.603,122.891,407.885,123.011,407.916z"
						/>
				</g>
			</g>
		</g>
		<g>
			<g>
				<g>
					<path d="M271.969,295.599c-0.469,0.028-0.548-8.604-3.814-18.568c-3.172-9.994-8.152-17.045-7.755-17.297
						c0.146-0.105,1.58,1.517,3.442,4.473c0.937,1.473,1.941,3.298,2.943,5.382c0.979,2.093,1.943,4.451,2.772,6.99
						c0.811,2.544,1.407,5.021,1.835,7.292c0.405,2.276,0.656,4.344,0.757,6.087C272.364,293.444,272.148,295.599,271.969,295.599z"
						/>
				</g>
			</g>
		</g>
		<g>
			<g>
				<g>
					<path d="M316.664,373.92c-0.049,0.012-0.157-0.354-0.318-1.082c-0.111-0.362-0.106-0.821-0.126-1.366
						c-0.051-0.549,0.032-1.169,0.117-1.872c0.345-2.824,1.965-6.635,4.478-10.924c1.251-2.154,2.714-4.449,4.259-6.912
						c0.773-1.231,1.557-2.509,2.33-3.838c0.201-0.329,0.375-0.672,0.565-1.011l0.281-0.512c0.089-0.162,0.214-0.378,0.22-0.441
						c0.149-0.457,0.033-1.295-0.12-2.048c-0.152-0.779-0.36-1.582-0.515-2.447c-0.07-0.44-0.144-0.885-0.122-1.416l0.055-0.421
						l0.054-0.297c0.032-0.197,0.082-0.4,0.095-0.591c0.094-0.787,0.085-1.522-0.295-1.983c-0.363-0.503-1.157-0.955-1.895-1.483
						c-0.752-0.526-1.497-1.125-2.168-1.799c-0.655-0.61-1.315-1.225-1.98-1.844c-0.335-0.306-0.658-0.627-1.005-0.925l-1.072-0.866
						c-0.724-0.571-1.422-1.183-2.179-1.731c-6.02-4.453-12.387-7.814-18.144-10.929c-5.767-3.104-10.943-6.017-15.017-8.903
						c-4.092-2.862-7.039-5.661-8.939-7.696c-0.933-1.035-1.574-1.913-2.03-2.485c-0.444-0.582-0.657-0.902-0.618-0.933
						c0.09-0.073,1.139,1.052,3.059,3.02c2.004,1.89,5.002,4.521,9.114,7.235c4.094,2.738,9.269,5.528,15.069,8.566
						c5.787,3.048,12.234,6.397,18.387,10.947c0.773,0.56,1.491,1.189,2.231,1.774l1.097,0.89c0.355,0.307,0.689,0.637,1.032,0.953
						c0.68,0.638,1.354,1.271,2.023,1.899c0.607,0.613,1.265,1.149,1.969,1.648c0.685,0.524,1.514,0.913,2.215,1.82
						c0.34,0.449,0.541,1.032,0.579,1.543c0.064,0.524,0.017,1.001-0.04,1.461c-0.021,0.236-0.075,0.45-0.114,0.673l-0.064,0.331
						l-0.029,0.211c-0.018,0.318,0.032,0.713,0.093,1.1c0.132,0.788,0.331,1.594,0.484,2.424c0.125,0.84,0.352,1.661,0.037,2.749
						c-0.116,0.319-0.212,0.437-0.311,0.624l-0.296,0.522c-0.2,0.344-0.385,0.696-0.593,1.027c-0.806,1.342-1.619,2.62-2.418,3.841
						c-1.596,2.444-3.1,4.693-4.395,6.79c-2.6,4.176-4.307,7.808-4.807,10.486C316.357,372.373,316.83,373.895,316.664,373.92z"/>
				</g>
			</g>
		</g>
		<g>
			<g>
				<g>
					<path d="M347.789,315.781c0.035-0.037,0.339,0.198,0.89,0.684c0.274,0.248,0.611,0.553,1.008,0.914
						c0.365,0.396,0.786,0.851,1.26,1.364c1.824,2.098,4.299,5.409,6.118,10.112c1.883,4.642,3.091,10.704,2.398,17.366
						c-0.352,3.318-1.235,6.771-2.627,10.105c-1.365,3.349-3.111,6.628-4.742,10.016c-1.637,3.381-3.041,6.756-3.798,10.164
						c-0.379,1.698-0.616,3.393-0.634,5.053c-0.002,0.829,0.021,1.65,0.122,2.452l0.07,0.6l0.199,1.1l0.1,0.552l0.05,0.275
						l0.011,0.067l-0.074-0.009l-0.148-0.017l-1.18-0.137c-0.49-0.058-0.977-0.115-1.462-0.172c-0.406-0.05-0.806-0.122-1.206-0.182
						c-0.8-0.115-1.583-0.259-2.352-0.417c-1.541-0.299-3.021-0.666-4.438-1.066c-2.835-0.8-5.409-1.761-7.696-2.772
						c-4.581-2.019-7.99-4.238-10.239-5.874c-1.112-0.842-1.962-1.508-2.503-2.005c-0.55-0.485-0.822-0.758-0.79-0.798
						c0.076-0.095,1.304,0.826,3.618,2.331c2.327,1.477,5.77,3.527,10.323,5.389c2.273,0.932,4.818,1.819,7.609,2.552
						c1.395,0.366,2.849,0.702,4.361,0.972c0.754,0.144,1.522,0.274,2.305,0.376c0.391,0.053,0.783,0.12,1.18,0.163
						c0.32,0.034,0.642,0.068,0.966,0.102l0.045,0.002c0.017,0.006-0.01-0.068-0.013-0.097l-0.026-0.127l-0.083-0.645
						c-0.116-0.863-0.15-1.742-0.155-2.628c0.005-1.774,0.245-3.569,0.632-5.352c0.773-3.573,2.224-7.071,3.879-10.489
						c1.651-3.426,3.389-6.672,4.735-9.927c1.373-3.243,2.233-6.515,2.613-9.708c0.74-6.397-0.312-12.283-2.023-16.844
						c-1.644-4.62-3.928-7.942-5.587-10.117c-0.429-0.538-0.809-1.017-1.14-1.432c-0.353-0.395-0.653-0.729-0.896-1.001
						C347.99,316.126,347.754,315.819,347.789,315.781z"/>
				</g>
			</g>
		</g>
		<g>
			<g>
				<g>
					<path d="M314.787,225.39c0.316,0.067-1.572,5.439-1.742,14.435c-0.104,4.482,0.332,9.831,1.513,15.64
						c1.182,5.808,3.167,12.053,5.914,18.326c2.785,6.263,5.989,11.979,9.139,17.031c3.151,5.054,6.211,9.473,8.818,13.159
						c2.621,3.678,4.742,6.655,6.211,8.717c1.457,2.068,2.228,3.238,2.147,3.3c-0.08,0.061-1.005-0.992-2.603-2.954
						c-1.598-1.962-3.872-4.832-6.596-8.45c-2.722-3.618-5.886-7.994-9.124-13.048c-3.237-5.051-6.515-10.811-9.339-17.161
						c-2.79-6.368-4.769-12.732-5.898-18.656c-1.129-5.925-1.463-11.383-1.223-15.937c0.227-4.555,0.88-8.202,1.539-10.658
						C314.191,226.675,314.71,225.365,314.787,225.39z"/>
				</g>
			</g>
		</g>
		<g>
			<g>
				<g>
					<path d="M335.229,223.395c0.057,0.242-2.012,0.635-4.859,2.252c-1.412,0.811-3.008,1.937-4.488,3.481
						c-1.489,1.529-2.79,3.512-3.96,5.739c-1.164,2.228-2.192,4.453-3.19,6.428c-0.987,1.983-1.894,3.761-2.675,5.244
						c-1.562,2.967-2.62,4.758-2.804,4.671c-0.184-0.087,0.542-2.037,1.864-5.119c0.661-1.541,1.471-3.365,2.39-5.38
						c0.934-2.012,1.91-4.229,3.113-6.533c1.203-2.295,2.635-4.41,4.3-6.007c1.647-1.605,3.416-2.714,4.969-3.448
						C333.033,223.262,335.22,223.24,335.229,223.395z"/>
				</g>
			</g>
		</g>
		<g>
			<g>
				<g>
					<path d="M262.166,406.295c-0.02,0.023-0.363-0.195-0.749-0.847c-0.385-0.646-0.678-1.782-0.544-3.195
						c0.08-1.417,0.617-3.067,1.008-4.947c0.104-0.471,0.212-0.959,0.323-1.462c0.076-0.51,0.154-1.036,0.234-1.578
						c0.192-1.078,0.249-2.237,0.354-3.446c0.306-4.859-0.257-10.665-1.313-17.057c-1.009-6.395-2.525-13.443-2.821-21.035
						c-0.158-3.784-0.057-7.475,0.157-11.018c0.198-3.545,0.485-6.951,0.727-10.188c0.515-6.474,0.777-12.301,0.499-17.178
						c-0.261-4.874-0.966-8.778-1.682-11.416c-0.137-0.672-0.331-1.247-0.489-1.749c-0.151-0.504-0.28-0.932-0.384-1.279
						c-0.199-0.696-0.281-1.073-0.234-1.092c0.047-0.019,0.221,0.32,0.512,0.987c0.141,0.337,0.315,0.753,0.521,1.242
						c0.203,0.493,0.443,1.061,0.625,1.729c0.895,2.621,1.772,6.567,2.171,11.508c0.416,4.942,0.257,10.848-0.185,17.34
						c-0.39,6.494-1.073,13.615-0.766,21.051c0.286,7.43,1.746,14.439,2.691,20.887c0.484,3.225,0.857,6.314,1.049,9.223
						c0.213,2.909,0.144,5.641-0.038,8.118c-0.14,1.237-0.234,2.418-0.467,3.518c-0.102,0.551-0.2,1.086-0.296,1.605
						c-0.133,0.511-0.262,1.006-0.387,1.485c-0.236,0.964-0.514,1.831-0.746,2.623c-0.227,0.795-0.398,1.526-0.492,2.188
						c-0.209,1.327-0.03,2.361,0.242,3.003C261.956,405.962,262.219,406.251,262.166,406.295z"/>
				</g>
			</g>
		</g>
		<g>
			<g>
				<g>
					<path d="M297.108,407.129c-0.022-0.053,0.276-0.208,0.82-0.517c0.521-0.317,1.395-0.753,2.007-1.674
						c0.61-0.907,0.617-2.411,0.434-4.037c-0.215-1.634-0.872-3.424-1.72-5.383c-0.209-0.496-0.423-1.003-0.642-1.522
						c-0.194-0.534-0.393-1.079-0.596-1.636c-0.391-1.118-0.872-2.262-1.164-3.503c-0.318-1.233-0.722-2.494-0.995-3.822
						c-0.265-1.329-0.538-2.698-0.818-4.101c-0.94-5.643-1.416-11.915-1.53-18.488c-0.207-13.158,0.914-25.013,1.83-33.552
						c0.481-4.27,0.927-7.717,1.272-10.095c0.348-2.377,0.588-3.686,0.69-3.675c0.101,0.011,0.053,1.341-0.12,3.737
						c-0.191,2.398-0.466,5.858-0.805,10.132c-0.65,8.548-1.601,20.374-1.395,33.427c0.113,6.521,0.544,12.726,1.397,18.297
						c0.255,1.384,0.503,2.733,0.744,4.044c0.246,1.31,0.619,2.548,0.905,3.765c0.261,1.227,0.704,2.347,1.058,3.45
						c0.183,0.549,0.363,1.088,0.539,1.615c0.202,0.523,0.4,1.034,0.594,1.533c1.64,3.949,2.296,7.835,0.794,10.138
						c-0.823,1.04-1.777,1.369-2.353,1.617C297.456,407.108,297.124,407.17,297.108,407.129z"/>
				</g>
			</g>
		</g>
		<g>
			<g>
				<g>
					<path d="M300.133,405.314c0.062,0.058-0.207,0.566-1.008,1.236c-0.807,0.696-2.208,1.263-3.889,1.835
						c-3.377,1.207-8.306,2.255-13.81,2.297c-5.505,0.017-10.441-0.99-13.834-2.144c-3.409-1.14-5.336-2.263-5.264-2.421
						c0.091-0.214,2.148,0.561,5.553,1.421c3.395,0.877,8.199,1.687,13.537,1.672c5.337-0.042,10.133-0.893,13.514-1.821
						c1.712-0.443,3.057-0.826,3.869-1.312C299.63,405.605,300.052,405.23,300.133,405.314z"/>
				</g>
			</g>
		</g>
		<g>
			<g>
				<g>
					<path d="M260.532,295.477c0.054,0.053-0.668,0.939-2.222,2.289c-1.537,1.367-3.994,3.11-7.307,4.739
						c-3.32,1.604-7.482,3.087-12.219,4.163c-4.732,1.105-10.009,1.895-15.535,2.535c-5.533,0.612-10.804,1.195-15.599,1.726
						c-4.798,0.489-9.113,1.006-12.756,1.23c-3.629,0.216-6.471,0.781-8.346,1.53c-1.879,0.717-2.855,1.302-2.919,1.194
						c-0.042-0.064,0.829-0.816,2.695-1.721c1.852-0.938,4.831-1.692,8.472-2.038c3.627-0.356,7.92-0.98,12.705-1.542
						c4.784-0.565,10.042-1.186,15.562-1.838c5.521-0.639,10.749-1.382,15.423-2.398c4.681-0.987,8.777-2.335,12.077-3.782
						c3.29-1.472,5.773-3.039,7.392-4.246C259.59,296.127,260.445,295.384,260.532,295.477z"/>
				</g>
			</g>
		</g>
		<g>
			<g>
				<g>
					<path d="M315.518,119.377c-0.06-0.067,0.235-0.495,0.995-1.034c0.758-0.526,2.02-1.113,3.683-1.319
						c1.657-0.227,3.689-0.011,5.751,0.656c2.079,0.654,4.178,1.684,6.364,2.743c8.766,4.29,15.275,8.821,15.06,9.148
						c-0.223,0.358-7.025-3.578-15.709-7.827c-2.178-1.057-4.228-2.102-6.145-2.778c-1.918-0.693-3.718-0.982-5.232-0.905
						C317.21,118.187,315.648,119.58,315.518,119.377z"/>
				</g>
			</g>
		</g>
		<g>
			<g>
				<g>
					<path d="M254.086,171.443c-0.05,0.005-0.118-0.295-0.202-0.878c-0.109-0.583-0.134-1.453-0.108-2.578
						c0.113-2.234,0.804-5.521,2.768-9.053c1.934-3.537,5.016-7.28,8.992-10.771c3.953-3.491,8.667-6.823,13.021-10.898
						c2.162-2.047,4.113-4.202,5.651-6.518c0.393-0.598,0.783-1.191,1.169-1.778c0.426-0.606,0.957-1.238,1.704-1.652
						c0.751-0.418,1.547-0.52,2.239-0.575c0.667-0.046,1.327-0.091,1.979-0.136c5.162-0.399,9.747-1.399,13.504-2.522
						c7.529-2.27,11.776-4.803,11.898-4.556c0.044,0.077-0.965,0.785-2.92,1.847c-1.956,1.054-4.882,2.433-8.665,3.702
						c-3.778,1.269-8.432,2.398-13.701,2.881c-1.306,0.162-2.755,0.068-3.645,0.585c-0.939,0.512-1.523,1.793-2.361,3.005
						c-1.598,2.442-3.622,4.688-5.84,6.789c-4.471,4.179-9.209,7.473-13.144,10.853c-3.931,3.355-6.997,6.916-8.975,10.261
						c-2.006,3.341-2.817,6.438-3.102,8.589c-0.111,1.081-0.179,1.932-0.167,2.51C254.168,171.126,254.137,171.437,254.086,171.443z
						"/>
				</g>
			</g>
		</g>
		<g>
			<g>
				<g>
					<path d="M330.731,219.664c-0.06,0.113-1.218-0.474-3.418-1.216c-1.099-0.374-2.468-0.758-4.073-1.151
						c-1.609-0.382-3.457-0.76-5.51-1.188c-2.051-0.434-4.312-0.921-6.697-1.68c-2.386-0.735-4.882-1.87-7.216-3.494
						c-4.721-3.237-8.497-8.228-12.557-13.083c-2.048-2.424-4.14-4.693-6.419-6.559c-0.557-0.483-1.145-0.911-1.738-1.32
						c-0.581-0.427-1.18-0.811-1.792-1.166c-1.221-0.715-2.475-1.332-3.721-1.899c-2.495-1.131-4.958-2.084-7.208-3.153
						c-2.262-1.059-4.257-2.259-6.02-3.42c-3.52-2.346-6.089-4.607-7.798-6.217c-1.707-1.617-2.566-2.595-2.501-2.664
						c0.074-0.079,1.067,0.758,2.878,2.232c1.814,1.468,4.456,3.581,7.982,5.772c1.769,1.086,3.746,2.206,5.968,3.187
						c2.222,0.998,4.687,1.904,7.251,3.023c1.28,0.562,2.585,1.184,3.873,1.921c0.645,0.365,1.284,0.766,1.899,1.21
						c0.629,0.426,1.251,0.873,1.837,1.374c2.4,1.939,4.56,4.275,6.633,6.728c4.105,4.918,7.768,9.797,12.211,12.922
						c4.385,3.189,9.341,4.249,13.363,5.269c2.032,0.492,3.881,0.944,5.49,1.408c1.607,0.475,2.976,0.947,4.064,1.411
						C329.695,218.835,330.77,219.599,330.731,219.664z"/>
				</g>
			</g>
		</g>
		<g>
			<g>
				<g>
					<path d="M349.692,236.016c0.023-0.05,0.245-0.041,0.477,0.26c0.196,0.271,0.444,0.936-0.139,1.579l-0.212,0.234l-0.296-0.27
						c-0.397-0.363-0.953-0.713-1.678-1.036c-0.717-0.334-1.612-0.632-2.567-1.181c-1.918-1.08-3.557-3.016-5.132-4.976
						c-4.711-5.811-9.194-9.954-8.914-10.278c0.235-0.305,5.24,3.413,10.054,9.347c1.597,1.99,3.049,3.788,4.658,4.83
						c0.782,0.525,1.641,0.9,2.381,1.344c0.744,0.432,1.36,0.948,1.743,1.466l-0.507-0.037c0.29-0.174,0.331-0.623,0.266-0.849
						C349.769,236.202,349.652,236.076,349.692,236.016z"/>
				</g>
			</g>
		</g>
		<g>
			<g>
				<g>
					<path d="M351.13,237.168c-0.246-0.007-0.114-4.219-1.063-10.931c-0.451-3.357-1.174-7.33-1.998-11.753
						c-0.814-4.423-1.718-9.311-2.224-14.524c-0.479-5.228-0.32-10.271,0.438-14.773c0.784-4.495,2.115-8.449,3.794-11.481
						c1.661-3.04,3.476-5.217,4.905-6.507c1.416-1.306,2.321-1.875,2.367-1.814c0.082,0.097-0.697,0.815-1.955,2.213
						c-1.273,1.383-2.903,3.589-4.391,6.585c-1.507,2.989-2.69,6.841-3.38,11.22c-0.664,4.387-0.779,9.305-0.311,14.42
						c0.498,5.128,1.353,9.989,2.095,14.426c0.75,4.437,1.373,8.46,1.696,11.866c0.33,3.405,0.411,6.18,0.336,8.093
						C351.367,236.122,351.221,237.172,351.13,237.168z"/>
				</g>
			</g>
		</g>
		<g>
			<g>
				<g>
					<path d="M381.644,239.262c-0.022,0.078-0.502,0.078-1.288-0.274c-0.77-0.359-1.791-1.168-2.615-2.443
						c-0.848-1.26-1.524-2.918-2.139-4.735c-0.611-1.804-1.303-3.751-2.144-5.765c-3.304-8.083-7.424-13.935-7.066-14.187
						c0.279-0.251,5.033,5.336,8.427,13.625c0.857,2.052,1.532,4.078,2.075,5.912c0.536,1.818,1.077,3.402,1.738,4.611
						c0.642,1.222,1.415,2.02,2.022,2.492C381.27,238.957,381.682,239.148,381.644,239.262z"/>
				</g>
			</g>
		</g>
		<g>
			<g>
				<g>
					<path d="M400.117,241.111c-0.143,0.177-1.089-0.425-2.686-1.147c-0.795-0.369-1.771-0.73-2.871-1.059
						c-1.107-0.305-2.343-0.563-3.659-0.697c-1.318-0.117-2.58-0.097-3.725-0.007c-1.142,0.115-2.169,0.285-3.019,0.497
						c-1.705,0.408-2.747,0.82-2.854,0.619c-0.089-0.154,0.802-0.911,2.54-1.612c0.864-0.356,1.945-0.651,3.169-0.851
						c1.227-0.175,2.599-0.24,4.028-0.112c1.428,0.145,2.763,0.468,3.935,0.871c1.165,0.428,2.17,0.921,2.951,1.435
						C399.501,240.064,400.233,240.977,400.117,241.111z"/>
				</g>
			</g>
		</g>
		<g>
			<g>
				<g>
					<path d="M370.719,226.696c0.033,0.38-5.207,0.872-11.44-0.662c-3.099-0.76-5.798-1.83-7.651-2.783
						c-0.918-0.464-1.692-0.895-2.134-1.356c-0.445-0.453-0.532-0.814-0.453-0.861c0.09-0.062,0.325,0.154,0.799,0.405
						c0.467,0.259,1.226,0.513,2.198,0.856c1.919,0.691,4.584,1.572,7.589,2.31C365.641,226.088,370.719,226.264,370.719,226.696z"
						/>
				</g>
			</g>
		</g>
		<g>
			<g>
				<g>
					<path d="M378.338,236.926c-0.045,0.171-0.869,0.19-2.105-0.297c-1.217-0.487-2.79-1.652-3.842-3.381
						c-1.071-1.712-1.562-3.43-1.837-4.653c-0.266-1.232-0.311-2.017-0.12-2.079c0.196-0.064,0.596,0.623,1.108,1.749
						c0.518,1.121,1.145,2.686,2.093,4.195c0.934,1.524,2.123,2.582,3.091,3.252C377.701,236.367,378.403,236.709,378.338,236.926z"
						/>
				</g>
			</g>
		</g>
		<g>
			<g>
				<g>
					<path d="M405.609,380.617c-0.12-0.081,0.972-1.463,2.181-4.337c0.602-1.433,1.212-3.24,1.693-5.395
						c0.465-2.158,0.817-4.656,0.963-7.44c0.195-2.781,0.01-5.849-0.04-9.13c-0.254-3.276-0.489-6.78-1.075-10.434
						c-1.045-7.321-2.862-15.27-5.079-23.54c-2.215-8.272-4.524-16.117-6.393-23.326c-1.9-7.201-3.244-13.793-4.129-19.363
						c-0.365-2.799-0.784-5.317-0.9-7.56c-0.156-2.237-0.371-4.155-0.329-5.737c-0.019-3.156,0.019-4.895,0.12-4.894
						c0.102,0,0.258,1.737,0.452,4.865c0.045,1.567,0.343,3.469,0.575,5.681c0.192,2.217,0.681,4.71,1.108,7.476
						c1.01,5.51,2.449,12.028,4.414,19.185c1.934,7.165,4.28,14.991,6.504,23.293c2.225,8.299,4.018,16.323,5,23.733
						c0.555,3.696,0.748,7.251,0.951,10.567c-0.001,3.328,0.123,6.424-0.141,9.254c-0.215,2.828-0.648,5.372-1.201,7.561
						c-0.569,2.188-1.275,4.013-1.972,5.441c-0.685,1.437-1.384,2.46-1.862,3.141C405.936,380.318,405.65,380.647,405.609,380.617z"
						/>
				</g>
			</g>
		</g>
		<g>
			<g>
				<g>
					<path d="M416.567,377.529c0.192-0.036,0.615,1.098,0.906,3.022c0.071,0.48,0.133,1.01,0.177,1.58
						c0.021,0.29,0.041,0.571,0.052,0.896c0.005,0.326,0.001,0.746-0.216,1.2c-0.218,0.455-0.676,0.82-1.141,0.95
						c-0.468,0.147-0.937,0.128-1.383,0.02c-0.436-0.106-0.897-0.355-1.227-0.687c-0.324-0.314-0.571-0.682-0.766-1.047
						c-0.384-0.73-0.586-1.44-0.84-1.986c-0.252-0.558-0.571-1.015-0.928-1.247c-0.69-0.494-1.713-0.074-2.573,0.306
						c-0.862,0.388-1.695,0.67-2.305,0.628c-0.61-0.034-0.882-0.268-0.851-0.345c0.032-0.112,0.333-0.092,0.791-0.225
						c0.466-0.126,1.072-0.472,1.888-0.984c0.414-0.246,0.883-0.537,1.514-0.737c0.613-0.2,1.499-0.25,2.236,0.195
						c1.491,0.893,1.789,2.629,2.367,3.703c0.147,0.277,0.309,0.511,0.492,0.694c0.17,0.174,0.343,0.268,0.571,0.339
						c0.462,0.13,0.845,0.004,0.947-0.196c0.157-0.21,0.133-0.9,0.15-1.437c0.002-0.551,0.003-1.065,0.005-1.536
						C416.416,378.751,416.36,377.566,416.567,377.529z"/>
				</g>
			</g>
		</g>
		<g>
			<g>
				<g>
					<path d="M413.871,297.699c0.1-0.019,0.392,1.084,0.835,3.096c0.453,2.011,1,4.942,1.582,8.581
						c0.59,3.638,1.157,7.991,1.654,12.84c0.471,4.851,0.856,10.2,1.054,15.823c0.179,5.624,0.152,10.986,0.008,15.858
						c-0.171,4.871-0.445,9.253-0.791,12.922c-0.337,3.669-0.686,6.631-1.004,8.667c-0.307,2.038-0.525,3.157-0.626,3.146
						c-0.101-0.012-0.076-1.154,0.056-3.205c0.142-2.05,0.332-5.018,0.535-8.682c0.211-3.665,0.377-8.031,0.473-12.88
						c0.07-4.85,0.055-10.182-0.123-15.775c-0.197-5.593-0.539-10.914-0.934-15.748c-0.42-4.832-0.878-9.178-1.334-12.82
						c-0.448-3.643-0.836-6.591-1.115-8.627C413.873,298.855,413.771,297.718,413.871,297.699z"/>
				</g>
			</g>
		</g>
		<g>
			<g>
				<g>
					<path d="M412.29,288.902c0.163-0.107,0.63,0.244,1.142,1.003c0.511,0.754,1.03,1.936,1.255,3.32
						c0.222,1.385,0.1,2.67-0.148,3.546c-0.247,0.882-0.58,1.361-0.769,1.311c-0.409-0.115-0.121-2.179-0.537-4.624
						C412.859,291.01,411.938,289.14,412.29,288.902z"/>
				</g>
			</g>
		</g>
		<g>
			<g>
				<g>
					<path d="M412.66,273.974c0.356-0.145,1.737,2.86,1.696,6.858c-0.014,3.999-1.437,6.984-1.792,6.834
						c-0.408-0.134,0.313-3.124,0.319-6.844C412.929,277.103,412.251,274.102,412.66,273.974z"/>
				</g>
			</g>
		</g>
		<g>
			<g>
				<g>
					<path d="M416.3,264.665c-0.369-0.204,0.377-2.176,0.828-4.668c0.48-2.487,0.496-4.595,0.914-4.652
						c0.384-0.075,1.058,2.162,0.533,4.923C418.068,263.031,416.632,264.874,416.3,264.665z"/>
				</g>
			</g>
		</g>
		<g>
			<g>
				<g>
					<path d="M443.851,281.105c0.013,0.075-1.061,0.384-3.061,0.592c-1.994,0.216-4.926,0.316-8.509-0.127
						c-3.576-0.447-7.789-1.481-12.189-3.342c-4.405-1.846-8.946-4.589-13.201-8.072c-4.263-3.482-7.834-7.347-10.777-11.067
						c-2.947-3.725-5.284-7.308-7.1-10.392c-1.815-3.088-3.114-5.679-3.944-7.498c-0.831-1.82-1.204-2.863-1.116-2.905
						c0.211-0.104,2.137,3.872,5.947,9.858c1.912,2.986,4.312,6.466,7.27,10.087c2.956,3.617,6.487,7.376,10.652,10.778
						c4.16,3.404,8.55,6.102,12.809,7.967c4.255,1.879,8.327,2.989,11.799,3.556C439.413,281.651,443.832,280.81,443.851,281.105z"
						/>
				</g>
			</g>
		</g>
		<g>
			<g>
				<g>
					<path d="M444.206,281.684c-0.029,0.098-0.918-0.093-2.512-0.525c-0.399-0.111-0.841-0.234-1.325-0.368
						c-0.478-0.152-0.987-0.348-1.54-0.546c-1.098-0.41-2.372-0.832-3.705-1.472c-0.674-0.305-1.38-0.624-2.116-0.957
						c-0.728-0.348-1.459-0.763-2.23-1.166c-1.559-0.78-3.118-1.796-4.789-2.816c-3.264-2.159-6.694-4.775-10.029-7.819
						c-3.323-3.057-6.212-6.249-8.706-9.251c-1.219-1.525-2.382-2.969-3.381-4.388c-1.04-1.388-1.934-2.734-2.746-3.964
						c-0.833-1.215-1.499-2.372-2.108-3.37c-0.613-0.996-1.099-1.878-1.48-2.609c-0.772-1.455-1.156-2.281-1.068-2.332
						c0.206-0.12,2.105,2.976,5.514,7.721c0.859,1.182,1.793,2.479,2.864,3.82c1.03,1.372,2.215,2.77,3.446,4.252
						c2.518,2.915,5.393,6.03,8.661,9.037c3.28,2.993,6.62,5.591,9.784,7.773c1.62,1.031,3.127,2.07,4.633,2.88
						c0.745,0.419,1.45,0.852,2.152,1.221c0.709,0.357,1.39,0.699,2.04,1.026C440.794,280.39,444.286,281.426,444.206,281.684z"/>
				</g>
			</g>
		</g>
		<g>
			<g>
				<g>
					<path d="M440.587,272.654c-0.039,0.185-1.504,0.083-3.799-0.486c-2.292-0.565-5.397-1.659-8.587-3.366
						c-3.186-1.714-5.815-3.696-7.553-5.293c-1.743-1.597-2.638-2.761-2.506-2.896c0.306-0.325,4.548,3.597,10.756,6.892
						C435.075,270.854,440.689,272.22,440.587,272.654z"/>
				</g>
			</g>
		</g>
		<g>
			<g>
				<g>
					<path d="M440.117,272.887c0.095,0.169-0.379,0.665-1.331,1.188c-0.946,0.523-2.39,1.029-4.048,1.188
						c-1.659,0.155-3.171-0.071-4.199-0.408c-1.033-0.335-1.591-0.734-1.53-0.918c0.138-0.405,2.594,0.168,5.59-0.14
						C437.6,273.537,439.906,272.514,440.117,272.887z"/>
				</g>
			</g>
		</g>
		<g>
			<g>
				<g>
					<path d="M387.387,184.238c-0.218,0.11-0.799-1.094-2.396-2.299c-1.548-1.203-4.277-2.298-7.251-1.889
						c-2.992,0.431-5.384,2.088-6.871,3.452c-1.512,1.376-2.273,2.449-2.466,2.327c-0.154-0.084,0.297-1.38,1.72-3.053
						c1.386-1.643,3.951-3.68,7.412-4.184c3.492-0.479,6.573,0.986,8.135,2.558C387.292,182.745,387.54,184.202,387.387,184.238z"/>
				</g>
			</g>
		</g>
		<g>
			<g>
				<g>
					<path d="M374.556,189.83c-0.17-0.066-0.09-0.876,0.665-1.914c0.717-1.006,2.288-2.258,4.41-2.249
						c2.163,0.055,3.69,1.506,4.202,2.699c0.548,1.243,0.227,2.089,0.058,2.059c-0.226,0.003-0.328-0.72-0.959-1.536
						c-0.594-0.806-1.844-1.723-3.321-1.75c-1.51-0.015-2.824,0.779-3.622,1.479C375.168,189.322,374.755,189.922,374.556,189.83z"
						/>
				</g>
			</g>
		</g>
		<g>
			<g>
				<g>
					<path d="M370.505,207.179c-0.094,0.194-0.781,0.017-1.849-0.091c-1.063-0.114-2.54-0.111-4.047,0.364
						c-1.506,0.477-2.717,1.324-3.521,2.028c-0.812,0.702-1.272,1.242-1.461,1.137c-0.167-0.086-0.021-0.843,0.689-1.836
						c0.694-0.984,2.03-2.158,3.849-2.733c1.819-0.575,3.587-0.381,4.721,0.025C370.038,206.477,370.592,207.012,370.505,207.179z"
						/>
				</g>
			</g>
		</g>
		<g>
			<g>
				<g>
					<path d="M352.2,162.28c-0.211,0.022-0.467-1.432-0.582-3.733c-0.082-1.146-0.138-2.495-0.457-3.92
						c-0.296-1.432-0.82-2.964-1.561-4.498c-1.511-3.061-3.466-5.561-4.839-7.395c-1.392-1.829-2.234-3-2.077-3.14
						c0.146-0.131,1.256,0.786,2.87,2.465c1.592,1.684,3.751,4.152,5.371,7.428c0.793,1.639,1.326,3.325,1.571,4.897
						c0.27,1.578,0.214,2.999,0.164,4.157C352.507,160.859,352.394,162.259,352.2,162.28z"/>
				</g>
			</g>
		</g>
		<g>
			<g>
				<g>
					<path d="M357.528,156.724c-0.43-0.003-0.648-3.53-1.769-7.675c-1.084-4.154-2.645-7.325-2.274-7.541
						c0.317-0.216,2.546,2.777,3.697,7.163C358.361,153.05,357.911,156.754,357.528,156.724z"/>
				</g>
			</g>
		</g>
		<g>
			<g>
				<g>
					<path d="M330.879,174.82c0.161-0.017,0.519,2.467-0.061,6.425c-0.302,1.967-0.801,4.285-1.485,6.805
						c-0.674,2.521-1.497,5.256-2.193,8.141c-0.696,2.883-1.145,5.662-1.169,8.192c-0.035,2.544,0.357,4.747,0.83,6.686
						c0.448,1.929,0.54,3.673,0.136,4.793c-0.374,1.131-0.973,1.51-1.012,1.459c-0.111-0.077,0.297-0.568,0.456-1.598
						c0.19-1.023-0.026-2.539-0.59-4.402c-0.589-1.843-1.146-4.274-1.176-6.937c-0.051-2.675,0.382-5.589,1.094-8.536
						c0.712-2.952,1.579-5.685,2.319-8.169c0.75-2.481,1.34-4.722,1.766-6.621C330.617,177.257,330.635,174.825,330.879,174.82z"/>
				</g>
			</g>
		</g>
		<g>
			<g>
				<g>
					<path d="M337.493,225.746c-0.358,0.148-1.667-2.487-1.783-6.044c-0.138-3.557,0.979-6.278,1.347-6.156
						c0.411,0.108-0.01,2.805,0.125,6.104C337.283,222.949,337.896,225.608,337.493,225.746z"/>
				</g>
			</g>
		</g>
		<g>
			<g>
				<g>
					<path d="M300.363,167.736c0.176,0.078-0.21,1.534-1.141,3.8c-0.472,1.13-1.101,2.461-1.975,3.858
						c-0.86,1.413-2.08,2.798-3.28,4.156c-2.399,2.689-3.901,5.627-5.016,7.76c-1.1,2.141-1.821,3.473-2.015,3.39
						c-0.18-0.076,0.195-1.535,1.066-3.818c0.877-2.254,2.312-5.444,4.853-8.297c1.244-1.409,2.39-2.649,3.26-3.939
						c0.886-1.279,1.589-2.514,2.17-3.563C299.436,168.976,300.168,167.649,300.363,167.736z"/>
				</g>
			</g>
		</g>
		<path style="fill:#020202;" d="M383.244,189.53c0,1.995-1.539,3.612-3.438,3.612c-1.898,0-3.437-1.617-3.437-3.612
			c0-1.995,1.539-3.612,3.437-3.612C381.705,185.918,383.244,187.535,383.244,189.53z"/>
		<g>
			<g>
				<g>
					<path d="M399.769,243.546c-0.195-0.109,0.403-1.187,0.143-2.988c-0.112-0.895-0.455-1.912-1.007-3.015
						c-0.54-1.101-1.295-2.3-1.964-3.66c-2.725-5.419-3.306-10.362-2.925-10.411c0.419-0.092,1.617,4.546,4.243,9.754
						c0.636,1.3,1.356,2.515,1.879,3.752c0.529,1.223,0.829,2.466,0.813,3.516c0.005,1.05-0.265,1.888-0.549,2.394
						C400.114,243.398,399.848,243.597,399.769,243.546z"/>
				</g>
			</g>
		</g>
		<g>
			<g>
				<g>
					<path d="M393.676,261.695c-0.363,0.159-1.767-2.29-2.607-5.635c-0.852-3.342-0.781-6.165-0.386-6.197
						c0.415-0.04,0.992,2.619,1.813,5.836C393.304,258.92,394.061,261.533,393.676,261.695z"/>
				</g>
			</g>
		</g>
		<g>
			<g>
				<g>
					<path d="M406.158,189.095c-0.435-0.013-0.497-4.309-1.759-9.378c-1.217-5.08-3.142-8.921-2.762-9.133
						c0.312-0.214,2.911,3.463,4.193,8.784C407.146,184.681,406.534,189.142,406.158,189.095z"/>
				</g>
			</g>
		</g>
		<g>
			<g>
				<g>
					<path d="M376.931,190.831c0.164-0.136,0.712,0.323,1.519,0.99c0.405,0.327,0.889,0.688,1.445,0.936
						c0.55,0.257,1.17,0.329,2.015,0.374l0.441,0.033l0.225,0.022l0.074,0.011l0.038,0.028c0.014,0.005,0.024-0.005,0.038-0.031
						c0.012,0.043-0.006-0.208-0.006-0.331c0.001-0.148,0.002-0.292,0.003-0.432c0.018-0.56,0.092-1.051,0.189-1.449
						c0.196-0.798,0.465-1.221,0.624-1.187c0.169,0.036,0.208,0.512,0.266,1.263c0.029,0.376,0.066,0.821,0.134,1.316
						c0.045,0.286,0.093,0.587,0.143,0.901c0.104,0.553,0.256,1.188,0.389,1.814c-0.505-0.118-1.152-0.326-1.685-0.407l-0.346-0.039
						l-0.2-0.015l-0.422-0.028c-0.817-0.034-1.812-0.188-2.542-0.638c-0.729-0.426-1.22-0.961-1.571-1.419
						C377.012,191.611,376.783,190.953,376.931,190.831z"/>
				</g>
			</g>
		</g>
		<g>
			<g>
				<g>
					<path d="M382.189,192.215c0.131,0.052,0.235,0.159,0.353,0.202c0.058,0.023,0.114,0.035,0.162,0.028
						c0.019,0.001,0.053-0.02,0.048-0.017c-0.016,0.014-0.032,0.034-0.04,0.048l-0.054,1.069c-0.246,0.141-0.566,0.234-0.907,0.238
						c-0.562,0.007-1.041-0.23-1.287-0.499c-0.253-0.272-0.283-0.548-0.159-0.703c0.277-0.3,0.865-0.245,1.43-0.27
						c0.173,0,0.337,0.001,0.503,0.001l-0.118,1.179c-0.443-0.352-0.442-0.802-0.347-1.032
						C381.878,192.213,382.065,192.163,382.189,192.215z"/>
				</g>
			</g>
		</g>
		<g>
			<g>
				<g>
					<path d="M383.236,189.329c0.164,0.126,0.193,0.383,0.232,0.702c0.025,0.323,0.069,0.77-0.047,1.411
						c-0.132,0.689-0.556,1.289-1.062,1.522c-0.522,0.238-0.875,0.025-0.874-0.163c-0.014-0.207,0.147-0.403,0.215-0.643
						c0.081-0.233,0.191-0.575,0.276-1.004c0.09-0.477,0.227-1.063,0.502-1.447C382.748,189.314,383.082,189.206,383.236,189.329z"
						/>
				</g>
			</g>
		</g>
		<g>
			<g>
				<g>
					<path d="M383.722,199.888c-0.196-0.377,1.541-1.581,2.853-3.701c1.359-2.09,1.71-4.174,2.134-4.157
						c0.192,0.009,0.368,0.579,0.301,1.516c-0.063,0.93-0.422,2.213-1.192,3.43c-0.774,1.215-1.782,2.086-2.596,2.539
						C384.403,199.974,383.812,200.058,383.722,199.888z"/>
				</g>
			</g>
		</g>
		<g>
			<g>
				<g>
					<path d="M386.864,202.298c-0.163-0.385,0.841-1.164,1.779-2.307c0.963-1.123,1.556-2.247,1.963-2.153
						c0.191,0.051,0.289,0.439,0.185,1.031c-0.102,0.588-0.433,1.367-1.02,2.069c-0.589,0.7-1.299,1.162-1.86,1.364
						C387.346,202.507,386.947,202.478,386.864,202.298z"/>
				</g>
			</g>
		</g>
		<g>
			<g>
				<g>
					<path d="M363.347,150.42c0.361,0.201,0.103,1.343-0.249,2.673c-0.364,1.327-0.713,2.445-1.127,2.437
						c-0.4-0.001-0.708-1.296-0.295-2.82C362.084,151.185,363.001,150.22,363.347,150.42z"/>
				</g>
			</g>
		</g>
		<g>
			<g>
				<g>
					<path d="M331.427,334.837c0.156,0.375-0.453,0.986-1.362,1.364c-0.908,0.378-1.771,0.38-1.927,0.005
						c-0.156-0.375,0.453-0.986,1.361-1.364C330.408,334.464,331.27,334.462,331.427,334.837z"/>
				</g>
			</g>
		</g>
		<g>
			<g>
				<g>
					<path d="M334.66,340.627c0.272,0.307-0.851,1.743-2.378,3.339c-1.532,1.592-2.92,2.773-3.238,2.514
						c-0.313-0.254,0.598-1.893,2.176-3.533C332.794,341.302,334.394,340.324,334.66,340.627z"/>
				</g>
			</g>
		</g>
		<g>
			<g>
				<g>
					<path d="M288.661,170.748c-0.19-0.385,2.148-1.773,4.045-4.387c1.945-2.578,2.589-5.22,3.014-5.151
						c0.189,0.029,0.282,0.759,0.056,1.905c-0.221,1.14-0.821,2.679-1.886,4.122c-1.069,1.44-2.365,2.463-3.391,3.008
						C289.469,170.796,288.745,170.92,288.661,170.748z"/>
				</g>
			</g>
		</g>
		<g>
			<g>
				<g>
					<path d="M286.695,147.354c0.128,0.203-1.765,1.427-4.059,4.191c-1.162,1.367-2.429,3.096-3.875,5.032
						c-1.452,1.922-3.109,4.068-5.298,5.944c-2.207,1.895-4.663,3.058-6.697,4.259c-2.056,1.183-3.747,2.423-4.849,3.776
						c-1.114,1.346-1.821,2.654-2.403,3.495c-0.57,0.854-0.947,1.288-1.033,1.236c-0.089-0.054,0.119-0.582,0.53-1.512
						c0.428-0.921,0.984-2.304,2.084-3.857c1.097-1.571,2.899-3.024,4.971-4.299c2.065-1.301,4.423-2.475,6.443-4.219
						c2.039-1.745,3.68-3.788,5.181-5.656c1.493-1.875,2.878-3.582,4.176-4.901C284.452,148.158,286.628,147.2,286.695,147.354z"/>
				</g>
			</g>
		</g>
		<g>
			<g>
				<g>
					<path d="M310.749,130.147c0.216,0.336-1.779,1.996-4.622,3.399c-2.84,1.411-5.369,1.991-5.505,1.615
						c-0.144-0.388,2.091-1.563,4.852-2.935C308.238,130.862,310.528,129.798,310.749,130.147z"/>
				</g>
			</g>
		</g>
		<g>
			<g>
				<g>
					<path d="M174.171,395.353c-0.037,0.074-0.78-0.178-1.998-0.888c-1.227-0.693-2.885-1.933-4.619-3.78
						c-1.713-1.86-3.483-4.328-5.035-7.27c-1.574-2.932-2.96-6.315-4.247-9.889c-2.597-7.147-4.445-13.788-5.567-18.637
						c-1.123-4.851-1.565-7.902-1.376-7.943c0.209-0.046,1.009,2.921,2.384,7.68c1.374,4.759,3.366,11.302,5.944,18.398
						c1.278,3.551,2.599,6.877,4.066,9.765c1.446,2.898,3.062,5.328,4.612,7.207C171.479,393.752,174.326,395.109,174.171,395.353z"
						/>
				</g>
			</g>
		</g>
		<g>
			<g>
				<g>
					<path d="M180.788,408.31c-0.397,0.137-1.771-2.902-3.697-6.497c-1.91-3.604-3.667-6.439-3.332-6.692
						c0.309-0.244,2.656,2.276,4.631,6C180.379,404.835,181.162,408.189,180.788,408.31z"/>
				</g>
			</g>
		</g>
		<g>
			<g>
				<g>
					<path d="M220.751,395.29c0.081-0.007,0.247,0.667,0.021,1.874c-0.235,1.197-0.978,2.852-2.324,4.534
						c-0.663,0.849-1.465,1.707-2.361,2.579c-0.917,0.889-2.005,1.73-3.226,2.472c-2.445,1.5-5.377,2.594-8.501,3.462
						c-6.286,1.723-12.268,1.784-16.465,1.285c-4.218-0.505-6.698-1.407-6.652-1.572c0.051-0.229,2.596,0.305,6.739,0.535
						c4.13,0.225,9.907-0.001,15.991-1.668c3.032-0.842,5.871-1.864,8.195-3.208c1.166-0.667,2.199-1.411,3.087-2.2
						c0.906-0.809,1.716-1.591,2.394-2.354c1.376-1.515,2.186-2.955,2.57-4.019C220.594,395.943,220.631,395.289,220.751,395.29z"/>
				</g>
			</g>
		</g>
		<g>
			<g>
				<g>
					<path d="M220.761,395.884c-0.212,0.063-0.643-0.959-1.657-2.376c-0.993-1.434-2.659-3.199-4.568-5.171
						c-3.777-3.942-6.961-7.044-6.693-7.36c0.253-0.307,3.916,2.335,7.755,6.34c1.914,1.976,3.564,3.964,4.398,5.653
						C220.853,394.648,220.94,395.843,220.761,395.884z"/>
				</g>
			</g>
		</g>
		<g>
			<g>
				<g>
					<path d="M183.022,310.824c-0.235-0.027-0.125-1.917-0.374-4.931c-0.109-1.508-0.359-3.294-0.677-5.273
						c-0.34-1.978-0.767-4.15-1.224-6.441c-0.457-2.292-0.857-4.497-1.139-6.52c-0.264-2.027-0.425-3.87-0.421-5.425
						c-0.02-3.114,0.431-5.004,0.6-4.98c0.235,0.024,0.157,1.915,0.44,4.927c0.127,1.507,0.39,3.292,0.722,5.271
						c0.351,1.978,0.785,4.149,1.243,6.442c0.457,2.294,0.85,4.501,1.121,6.527c0.251,2.03,0.398,3.876,0.376,5.432
						C183.674,308.967,183.189,310.851,183.022,310.824z"/>
				</g>
			</g>
		</g>
		<g>
			<g>
				<path style="fill:none;stroke:#FFFFFF;stroke-miterlimit:10;" d="M261.635,295.715"/>
			</g>
		</g>
		<g>
			<g>
				<g>
					<path d="M270.086,289.08c0.204,0.367-3.137,2.569-7.077,5.492c-3.952,2.908-7.038,5.454-7.329,5.152
						c-0.277-0.279,2.413-3.36,6.454-6.336C266.165,290.399,269.902,288.733,270.086,289.08z"/>
				</g>
			</g>
		</g>
		<g>
			<g>
				<g>
					<path d="M289.949,409.117c-0.217,0.028-0.453-1.019-1.15-2.518c-0.35-0.73-0.831-1.641-1.477-2.402
						c-0.621-0.742-1.596-1.193-2.696-1.139c-1.074,0.043-2.028,0.65-2.638,1.403c-0.622,0.749-0.865,1.65-1.024,2.465
						c-0.278,1.655-0.5,2.747-0.712,2.722c-0.192-0.023-0.344-1.063-0.323-2.84c0.031-0.876,0.198-2.081,0.975-3.164
						c0.737-1.056,2.06-1.987,3.647-2.057c1.546-0.106,3.059,0.681,3.821,1.752c0.76,1.037,1.131,2.024,1.401,2.894
						C290.273,407.977,290.133,409.104,289.949,409.117z"/>
				</g>
			</g>
		</g>
		<g>
			<g>
				<g>
					<path d="M299.789,397.269c0.015,0.223-0.677,0.379-1.493,1.016c-0.827,0.616-1.759,1.758-2.447,3.247
						c-0.707,1.48-1.017,2.938-1.112,4.014c-0.1,1.077-0.041,1.79-0.248,1.85c-0.179,0.059-0.618-0.592-0.793-1.821
						c-0.18-1.215,0.01-2.978,0.822-4.672c0.78-1.7,2.069-3.01,3.255-3.518C298.967,396.852,299.802,397.093,299.789,397.269z"/>
				</g>
			</g>
		</g>
		<g>
			<g>
				<g>
					<path d="M337.548,383.953c-0.209-0.07,0.068-1.187,0.102-2.964c0.015-0.887-0.045-1.94-0.278-3.07
						c-0.213-1.107-0.675-2.31-1.604-2.629c-0.465-0.174-1.033-0.155-1.534,0.003c-0.501,0.156-0.971,0.463-1.378,0.818
						c-0.817,0.729-1.441,1.611-1.893,2.354c-0.903,1.517-1.202,2.631-1.421,2.587c-0.178-0.02-0.253-1.248,0.491-3.056
						c0.387-0.895,0.946-1.91,1.896-2.876c0.483-0.473,1.083-0.927,1.847-1.195c0.753-0.259,1.637-0.331,2.503-0.016
						c0.884,0.317,1.511,1.048,1.844,1.74c0.346,0.702,0.495,1.401,0.586,2.039c0.183,1.278,0.132,2.444-0.022,3.395
						C338.367,382.996,337.717,384.022,337.548,383.953z"/>
				</g>
			</g>
		</g>
		<g>
			<g>
				<g>
					<path d="M347.384,376.523c-0.041,0.216-0.666,0.229-1.407,0.722c-0.765,0.476-1.611,1.447-2.448,2.71
						c-1.684,2.471-2.406,4.876-2.82,4.795c-0.193-0.039-0.264-0.715-0.054-1.771c0.206-1.051,0.728-2.473,1.651-3.844
						c0.888-1.351,2.089-2.489,3.24-2.838C346.717,375.921,347.452,376.354,347.384,376.523z"/>
				</g>
			</g>
		</g>
		<g>
			<g>
				<g>
					<path d="M204.874,409.057c-0.212,0.072-0.705-1.141-1.879-2.802c-0.588-0.827-1.358-1.758-2.344-2.643
						c-0.945-0.867-2.212-1.696-3.493-1.741c-0.626-0.008-1.18,0.217-1.62,0.618c-0.442,0.404-0.77,0.97-1.015,1.551
						c-0.476,1.176-0.71,2.407-0.857,3.398c-0.269,2.017-0.159,3.322-0.379,3.354c-0.177,0.038-0.67-1.24-0.66-3.43
						c0.027-1.097,0.142-2.375,0.63-3.812c0.259-0.707,0.63-1.466,1.29-2.109c0.65-0.646,1.647-1.068,2.631-1.041
						c0.984,0.024,1.839,0.367,2.561,0.779c0.72,0.416,1.338,0.934,1.847,1.452c1.032,1.031,1.781,2.117,2.294,3.077
						C204.907,407.645,205.048,409.01,204.874,409.057z"/>
				</g>
			</g>
		</g>
		<g>
			<g>
				<g>
					<path d="M216.388,402.146c-0.173,0.125-0.978-0.753-2.351-2.041c-0.688-0.643-1.524-1.383-2.5-2.138
						c-0.473-0.371-0.98-0.714-1.446-0.82c-0.448-0.104-0.817,0.029-1.205,0.436c-0.753,0.809-0.802,2.15-0.683,3.324
						c0.133,1.194,0.346,2.328,0.517,3.25c0.355,1.859,0.618,3.022,0.42,3.094c-0.182,0.068-0.798-0.98-1.427-2.829
						c-0.309-0.934-0.629-2.025-0.855-3.341c-0.103-0.661-0.165-1.385-0.07-2.168c0.094-0.773,0.386-1.645,1.015-2.325
						c0.314-0.34,0.708-0.633,1.187-0.798c0.485-0.169,1.013-0.157,1.452-0.04c0.88,0.248,1.459,0.747,1.959,1.172
						c0.981,0.857,1.783,1.715,2.4,2.477C216.032,400.927,216.545,402.036,216.388,402.146z"/>
				</g>
			</g>
		</g>
		<g>
			<g>
				<g>
					<path d="M215.157,388.451c0.426-0.006,0.734,2.625,1.791,5.642c1.023,3.028,2.399,5.292,2.059,5.55
						c-0.291,0.256-2.331-1.779-3.452-5.071C214.413,391.288,214.77,388.428,215.157,388.451z"/>
				</g>
			</g>
		</g>
		<g>
			<g>
				<g>
					<path d="M108.856,414.957c-0.221,0.001-0.325-1.254-0.855-3.148c-0.267-0.945-0.652-2.046-1.226-3.194
						c-0.542-1.139-1.366-2.294-2.45-2.165c-1.171,0.087-2.085,1.15-2.826,2.212c-0.766,1.064-1.404,2.062-1.924,2.915
						c-1.036,1.707-1.625,2.819-1.823,2.741c-0.181-0.068,0.068-1.33,0.9-3.223c0.417-0.944,0.987-2.04,1.724-3.194
						c0.369-0.573,0.79-1.205,1.402-1.778c0.605-0.569,1.445-1.061,2.436-1.141c1.018-0.107,2.031,0.435,2.587,1.079
						c0.588,0.642,0.93,1.345,1.205,1.984c0.555,1.285,0.864,2.511,1.014,3.548C109.315,413.679,109.04,414.965,108.856,414.957z"/>
				</g>
			</g>
		</g>
		<g>
			<g>
				<g>
					<path d="M121.512,411.659c-0.207,0.051-0.621-1.042-1.406-2.713c-0.401-0.812-0.877-1.87-1.516-2.766
						c-0.324-0.437-0.727-0.807-1.167-0.977c-0.233-0.069-0.246-0.067-0.399,0.003c-0.151,0.078-0.397,0.294-0.572,0.508
						c-0.745,0.881-0.968,2.195-1.138,3.383c-0.151,1.206-0.325,2.374-0.564,3.296c-0.465,1.866-1.005,2.935-1.191,2.879
						c-0.203-0.059-0.024-1.215,0.165-3.057c0.103-0.93,0.158-1.993,0.241-3.264c0.054-0.635,0.123-1.317,0.31-2.038
						c0.182-0.713,0.49-1.487,1.052-2.15c0.288-0.33,0.568-0.614,1.035-0.864c0.23-0.118,0.532-0.206,0.834-0.201
						c0.296,0.004,0.548,0.078,0.762,0.165c0.822,0.352,1.364,0.964,1.745,1.541c0.733,1.185,1.064,2.242,1.374,3.165
						C121.642,410.416,121.7,411.616,121.512,411.659z"/>
				</g>
			</g>
		</g>
		<g>
			<g>
				<g>
					<path d="M280.094,305.418c-0.121,0.145-1.392-0.585-3.259-2.079c-0.926-0.754-1.996-1.721-3.021-2.977
						c-1.017-1.25-1.963-2.851-2.485-4.677c-0.533-1.816-0.684-3.586-0.764-5.152c-0.075-1.572-0.085-2.965-0.132-4.128
						c-0.073-2.323-0.325-3.742-0.117-3.804c0.181-0.061,0.808,1.327,1.154,3.705c0.183,1.182,0.301,2.591,0.449,4.126
						c0.15,1.533,0.341,3.197,0.823,4.835c0.934,3.287,3.19,5.649,4.795,7.301C279.178,304.219,280.233,305.252,280.094,305.418z"/>
				</g>
			</g>
		</g>
		<g>
			<g>
				<g>
					<path d="M287.582,301.019c0.212,0.333-1.138,1.504-3.236,1.863c-2.096,0.37-3.762-0.276-3.676-0.661
						c0.073-0.412,1.618-0.463,3.423-0.79C285.904,301.13,287.375,300.656,287.582,301.019z"/>
				</g>
			</g>
		</g>
		<g>
			<g>
				<g>
					<path d="M288.848,305.13c0.061,0.402-0.662,0.846-1.615,0.991c-0.953,0.146-1.776-0.062-1.837-0.464
						c-0.061-0.402,0.662-0.846,1.615-0.992C287.964,304.521,288.786,304.728,288.848,305.13z"/>
				</g>
			</g>
		</g>
		<g>
			<g>
				<g>
					<path d="M181.358,323.526c0.009,0.193-0.769,0.432-2.065,0.484c-1.291,0.054-3.1-0.125-4.995-0.721
						c-1.895-0.6-3.478-1.491-4.504-2.277c-1.031-0.786-1.531-1.429-1.413-1.582c0.265-0.34,2.823,1.363,6.36,2.455
						C178.263,323.022,181.337,323.096,181.358,323.526z"/>
				</g>
			</g>
		</g>
		<g>
			<g>
				<g>
					<path d="M180.379,328.118c0.044,0.391-2.112,0.896-4.715,0.309c-2.607-0.573-4.344-1.946-4.139-2.281
						c0.204-0.367,2.092,0.329,4.459,0.843C178.345,327.528,180.35,327.699,180.379,328.118z"/>
				</g>
			</g>
		</g>
		<g>
			<g>
				<g>
					<path d="M178.925,332.861c0.17,0.098,0.249,0.362,0.089,0.697c-0.153,0.33-0.567,0.674-1.102,0.768
						c-0.534,0.096-1.042-0.082-1.3-0.339c-0.266-0.258-0.284-0.534-0.158-0.685c0.131-0.16,0.35-0.217,0.552-0.279
						c0.207-0.058,0.413-0.109,0.646-0.147c0.232-0.045,0.442-0.068,0.657-0.086C178.521,332.779,178.746,332.757,178.925,332.861z"
						/>
				</g>
			</g>
		</g>
		<g>
			<g>
				<g>
					<path d="M291.249,340.144c0.103,0.158-0.386,0.723-1.422,1.3c-1.027,0.578-2.629,1.102-4.452,1.148
						c-1.823,0.041-3.448-0.405-4.501-0.934c-1.063-0.527-1.578-1.068-1.483-1.231c0.209-0.375,2.699,0.806,5.949,0.693
						C288.591,341.078,291.022,339.78,291.249,340.144z"/>
				</g>
			</g>
		</g>
		<g>
			<g>
				<g>
					<path d="M290.642,345.941c0.152,0.111-0.057,0.756-0.834,1.473c-0.762,0.719-2.106,1.391-3.667,1.6
						c-1.555,0.208-2.929,0.013-3.878-0.203c-0.953-0.224-1.514-0.481-1.492-0.681c0.022-0.204,0.635-0.312,1.587-0.356
						c0.951-0.05,2.236-0.037,3.581-0.219c1.339-0.183,2.484-0.59,3.27-0.993C290,346.169,290.473,345.808,290.642,345.941z"/>
				</g>
			</g>
		</g>
		<g>
			<g>
				<g>
					<path d="M123.494,346.708c0.029,0.186-0.712,0.512-1.997,0.62c-1.277,0.113-3.097-0.068-4.938-0.802
						c-1.839-0.739-3.281-1.863-4.129-2.825c-0.856-0.965-1.167-1.712-1.018-1.827c0.336-0.272,2.353,1.988,5.694,3.284
						C120.419,346.525,123.438,346.28,123.494,346.708z"/>
				</g>
			</g>
		</g>
		<g>
			<g>
				<g>
					<path d="M118.059,351.861c-0.067,0.396-1.835,0.422-3.886-0.19c-2.052-0.607-3.519-1.594-3.359-1.962
						c0.162-0.378,1.818-0.028,3.779,0.551C116.552,350.845,118.131,351.456,118.059,351.861z"/>
				</g>
			</g>
		</g>
		<g>
			<g>
				<g>
					<path d="M154.478,240.339c-0.399,0.193-2.884-4.71-7.253-9.78c-4.326-5.107-8.781-8.327-8.528-8.691
						c0.176-0.327,5.158,2.443,9.647,7.734C152.87,234.863,154.828,240.217,154.478,240.339z"/>
				</g>
			</g>
		</g>
		<g>
			<g>
				<g>
					<path d="M158.561,239.12c-0.343,0.218-1.267-0.622-2.063-1.876c-0.796-1.254-1.163-2.447-0.819-2.665
						c0.343-0.218,1.267,0.622,2.063,1.876C158.537,237.708,158.904,238.902,158.561,239.12z"/>
				</g>
			</g>
		</g>
		<g>
			<g>
				<g>
					<path d="M253.626,249.189c-0.364,0.114-1.604-3.547-1.159-8.208c0.412-4.664,2.298-8.037,2.635-7.859
						c0.4,0.165-0.788,3.603-1.169,7.994C253.507,245.502,254.049,249.099,253.626,249.189z"/>
				</g>
			</g>
		</g>
		<g>
			<g>
				<g>
					<path d="M245.98,251.76c-0.363,0.132-1.592-2.763-1.442-6.563c0.126-3.8,1.563-6.598,1.915-6.441
						c0.402,0.145-0.334,2.968-0.443,6.494C245.863,248.775,246.392,251.645,245.98,251.76z"/>
				</g>
			</g>
		</g>
		<g>
			<g>
				<g>
					<path d="M370.966,175.952c-0.199,0.341-1.837-0.317-3.061-2.02c-1.233-1.697-1.343-3.459-0.956-3.541
						c0.404-0.108,1.092,1.236,2.15,2.678C370.135,174.526,371.195,175.602,370.966,175.952z"/>
				</g>
			</g>
		</g>
		<g>
			<g>
				<g>
					<path d="M368.101,165.058c0.098,0.425-3.478,1.41-7.179,3.909c-3.734,2.451-6.022,5.369-6.376,5.114
						c-0.156-0.109,0.218-1.001,1.146-2.239c0.922-1.237,2.442-2.784,4.415-4.101c1.976-1.312,3.99-2.117,5.487-2.49
						C367.094,164.873,368.06,164.872,368.101,165.058z"/>
				</g>
			</g>
		</g>
		<g>
			<g>
				<g>
					<path d="M413.14,212.754c-0.108-0.042-0.173-0.112-0.371-0.091c-0.118-0.001-0.221,0.013-0.431,0.05
						c-0.214,0.026-0.451,0.055-0.709,0.086c-1.047,0.113-2.473,0.249-4.032,0.502c-3.118,0.482-5.595,1.295-5.77,0.911
						c-0.181-0.347,2.186-1.841,5.538-2.365c1.66-0.27,3.195-0.243,4.283-0.089c0.272,0.035,0.517,0.087,0.731,0.133
						c0.215,0.039,0.477,0.127,0.631,0.252c0.169,0.118,0.277,0.314,0.261,0.448C413.255,212.723,413.185,212.76,413.14,212.754z"/>
				</g>
			</g>
		</g>
		<g>
			<g>
				<g>
					<path d="M416.16,227.139c-0.146,0.156-0.671-0.122-1.573-0.129c-0.886-0.022-2.261,0.178-3.744,0.369
						c-2.965,0.403-5.353,1.029-5.508,0.64c-0.16-0.361,2.133-1.663,5.303-2.098c1.569-0.198,3.008-0.256,4.126,0.063
						C415.892,226.308,416.311,227.017,416.16,227.139z"/>
				</g>
			</g>
		</g>
		<g>
			<g>
				<g>
					<path d="M419.163,241.867c-0.197,0.035-0.474-0.47-1.244-0.663c-0.373-0.1-0.864-0.114-1.496-0.096
						c-0.645,0.013-1.358,0.006-2.095-0.008c-2.944-0.114-5.268,0.045-5.376-0.329c-0.045-0.191,0.515-0.527,1.503-0.777
						c0.985-0.259,2.385-0.4,3.901-0.367c0.759,0.014,1.471,0.063,2.122,0.124c0.659,0.058,1.35,0.188,1.873,0.504
						c0.522,0.31,0.813,0.745,0.9,1.071C419.338,241.66,419.256,241.849,419.163,241.867z"/>
				</g>
			</g>
		</g>
		<g>
			<g>
				<g>
					<path d="M419.395,251.173c-0.264,0.333-2.054-0.737-4.485-1.15c-2.422-0.463-4.473-0.088-4.604-0.492
						c-0.057-0.185,0.41-0.541,1.294-0.808c0.877-0.268,2.178-0.399,3.572-0.149c1.393,0.254,2.566,0.831,3.294,1.39
						C419.201,250.523,419.514,251.02,419.395,251.173z"/>
				</g>
			</g>
		</g>
		<g>
			<g>
				<g>
					<path d="M418.385,255.976c-0.243,0.343-2.004-0.53-4.256-1.233c-2.244-0.728-4.186-1.032-4.186-1.452
						c-0.02-0.392,2.133-0.754,4.633,0.049C417.079,254.128,418.628,255.667,418.385,255.976z"/>
				</g>
			</g>
		</g>
		<g>
			<g>
				<g>
					<path d="M413.15,278.554c-0.104-0.011-0.195-0.087-0.348-0.117c-0.136-0.036-0.452-0.12-0.827-0.281
						c-0.737-0.3-1.689-0.796-2.725-1.292c-1.036-0.498-1.975-0.865-2.686-1.1c-0.706-0.242-1.187-0.394-1.194-0.606
						c-0.008-0.193,0.495-0.417,1.352-0.423c0.853-0.015,2.024,0.251,3.16,0.8c1.139,0.546,2.041,1.208,2.645,1.739
						c0.151,0.134,0.282,0.26,0.395,0.377c0.126,0.125,0.241,0.263,0.309,0.407C413.382,278.364,413.246,278.575,413.15,278.554z"/>
				</g>
			</g>
		</g>
		<g>
			<g>
				<g>
					<path d="M413.221,284.229c-0.063,0.408-1.829,0.464-3.955,0.548c-1.064,0.035-1.988,0.089-2.671,0.154
						c-0.682,0.056-1.142,0.098-1.236-0.088c-0.09-0.175,0.24-0.569,0.949-0.912c0.702-0.35,1.766-0.589,2.905-0.624
						C411.5,283.218,413.288,283.835,413.221,284.229z"/>
				</g>
			</g>
		</g>
		<g>
			<g>
				<g>
					<path d="M413.165,289.072c-0.163,0.136-0.552-0.084-1.145-0.293c-0.589-0.216-1.419-0.412-2.357-0.405
						c-1.892,0.042-3.588,0.642-3.761,0.23c-0.082-0.182,0.236-0.543,0.883-0.921c0.641-0.371,1.65-0.768,2.868-0.782
						c1.228-0.013,2.315,0.45,2.915,0.992C413.182,288.438,413.315,288.956,413.165,289.072z"/>
				</g>
			</g>
		</g>
		<g>
			<g>
				<g>
					<path d="M413.811,293.449c-0.176,0.379-1.54,0.1-3.176,0.086c-1.635-0.044-3.008,0.185-3.171-0.2
						c-0.176-0.354,1.211-1.313,3.197-1.272C412.648,292.093,413.999,293.101,413.811,293.449z"/>
				</g>
			</g>
		</g>
		<g>
			<g>
				<g>
					<path d="M414.076,298.482c-0.105,0.401-1.28,0.433-2.653,0.518c-1.374,0.068-2.545,0.168-2.694-0.219
						c-0.154-0.367,0.979-1.163,2.612-1.251C412.974,297.436,414.188,298.1,414.076,298.482z"/>
				</g>
			</g>
		</g>
		<g>
			<g>
				<g>
					<path d="M414.203,302.78c-0.073,0.408-1.143,0.552-2.38,0.751c-1.24,0.181-2.304,0.365-2.496-0.002
						c-0.194-0.348,0.764-1.224,2.273-1.453C413.106,301.841,414.284,302.389,414.203,302.78z"/>
				</g>
			</g>
		</g>
		<g>
			<g>
				<g>
					<path d="M415.087,308.16c-0.1,0.402-0.987,0.526-1.974,0.726c-0.992,0.177-1.861,0.389-2.103,0.052
						c-0.245-0.315,0.487-1.245,1.827-1.498C414.176,307.182,415.2,307.777,415.087,308.16z"/>
				</g>
			</g>
		</g>
		<g>
			<g>
				<g>
					<path d="M416.626,315.068c-0.238,0.339-1.15,0.117-2.223,0.019c-1.07-0.129-2.016-0.114-2.171-0.498
						c-0.17-0.363,0.865-1.126,2.327-0.966c0.712,0.076,1.32,0.356,1.681,0.662C416.607,314.592,416.732,314.9,416.626,315.068z"/>
				</g>
			</g>
		</g>
		<g>
			<g>
				<g>
					<path d="M416.923,319.644c-0.327,0.257-1.174-0.263-2.269-0.516c-1.085-0.295-2.076-0.236-2.244-0.617
						c-0.07-0.184,0.137-0.474,0.615-0.689c0.471-0.216,1.214-0.316,1.987-0.122c0.772,0.194,1.381,0.633,1.694,1.046
						C417.026,319.162,417.071,319.516,416.923,319.644z"/>
				</g>
			</g>
		</g>
		<g>
			<g>
				<g>
					<path d="M417.546,325.308c-0.256,0.326-1.043,0.147-1.929,0.115c-0.885-0.067-1.687,0.023-1.904-0.33
						c-0.094-0.174,0.027-0.461,0.383-0.72c0.35-0.258,0.943-0.457,1.604-0.42c0.661,0.038,1.228,0.301,1.547,0.597
						C417.571,324.847,417.659,325.146,417.546,325.308z"/>
				</g>
			</g>
		</g>
		<g>
			<g>
				<g>
					<path d="M417.189,328.438c-0.172,0.375-0.797,0.465-1.443,0.554c-0.649,0.063-1.278,0.122-1.532-0.203
						c-0.113-0.164-0.068-0.429,0.171-0.694c0.234-0.263,0.668-0.504,1.189-0.565c0.521-0.061,0.999,0.072,1.288,0.273
						C417.155,328.005,417.261,328.252,417.189,328.438z"/>
				</g>
			</g>
		</g>
		<g>
			<g>
				<g>
					<path d="M417.937,340.576c-0.281,0.303-0.863,0.233-1.451,0.177c-0.584-0.087-1.166-0.159-1.366-0.52
						c-0.084-0.18,0-0.433,0.281-0.646c0.275-0.212,0.748-0.358,1.264-0.295c0.515,0.063,0.94,0.317,1.156,0.589
						C418.041,340.155,418.062,340.421,417.937,340.576z"/>
				</g>
			</g>
		</g>
		<g>
			<g>
				<g>
					<path d="M418.024,347.291c-0.316,0.264-0.939,0.041-1.56-0.279c-0.613-0.334-1.148-0.724-1.107-1.134
						c0.031-0.4,0.901-0.641,1.796-0.167C418.048,346.186,418.338,347.041,418.024,347.291z"/>
				</g>
			</g>
		</g>
		<g>
			<g>
				<g>
					<path d="M417.837,357.113c-0.33,0.248-0.936,0.003-1.556-0.29c-0.61-0.312-1.174-0.644-1.178-1.057
						c-0.018-0.401,0.874-0.734,1.829-0.264C417.886,355.973,418.166,356.883,417.837,357.113z"/>
				</g>
			</g>
		</g>
		<g>
			<g>
				<g>
					<path d="M362.382,203.249c0.049,0.11-0.865,0.59-1.816,1.406c-0.959,0.807-1.58,1.632-1.681,1.565
						c-0.094-0.051,0.402-1.024,1.414-1.878C361.307,203.48,362.347,203.148,362.382,203.249z"/>
				</g>
			</g>
		</g>
		<g>
			<g>
				<g>
					<path d="M370.095,195.268c-0.016,0.11-0.708-0.006-1.196-0.654c-0.494-0.644-0.42-1.342-0.31-1.328
						c0.118-0.007,0.226,0.553,0.637,1.079C369.623,194.902,370.133,195.156,370.095,195.268z"/>
				</g>
			</g>
		</g>
		<g>
			<g>
				<g>
					<path d="M406.411,278.282c0.008,0.118-0.92,0.256-2.016,0.581c-1.098,0.317-1.954,0.701-2.012,0.597
						c-0.056-0.092,0.746-0.658,1.896-0.992C405.428,278.13,406.409,278.174,406.411,278.282z"/>
				</g>
			</g>
		</g>
		<g>
			<g>
				<g>
					<path d="M408.95,238.764c0.006,0.118-0.96,0.249-2.106,0.566c-1.148,0.309-2.047,0.688-2.101,0.583
						c-0.054-0.094,0.794-0.656,1.993-0.98C407.933,238.603,408.949,238.655,408.95,238.764z"/>
				</g>
			</g>
		</g>
		<g>
			<g>
				<g>
					<path d="M368.051,220.511c-0.126-0.004-0.004-1.428-0.673-2.99c-0.642-1.573-1.74-2.487-1.655-2.579
						c0.041-0.097,1.34,0.733,2.034,2.421C368.471,219.042,368.149,220.55,368.051,220.511z"/>
				</g>
			</g>
		</g>
		<g>
			<g>
				<g>
					<path d="M407.074,197.414c-0.063,0.083-1.14-0.741-1.972-2.161c-0.843-1.414-1.045-2.754-0.942-2.77
						c0.118-0.031,0.488,1.21,1.295,2.561C406.25,196.402,407.159,197.325,407.074,197.414z"/>
				</g>
			</g>
		</g>
		<g>
			<g>
				<g>
					<path d="M348.843,187.531c-0.045,0.005-0.18-0.657-0.156-1.745c0.021-1.084,0.253-2.594,0.871-4.142
						c0.623-1.547,1.498-2.799,2.232-3.597c0.734-0.803,1.289-1.189,1.318-1.154c0.107,0.088-1.976,1.864-3.168,4.904
						C348.702,184.819,348.981,187.541,348.843,187.531z"/>
				</g>
			</g>
		</g>
		<g>
			<g>
				<g>
					<path d="M347.282,136.924c-0.037,0.097-1.425-0.443-2.764-1.665c-1.347-1.213-2.021-2.542-1.928-2.588
						c0.104-0.067,0.907,1.119,2.204,2.284C346.08,136.13,347.339,136.814,347.282,136.924z"/>
				</g>
			</g>
		</g>
		<g>
			<g>
				<g>
					<path d="M296.481,181.916c0.098,0.087-1.764,2.007-3.332,4.864c-1.592,2.844-2.232,5.441-2.358,5.404
						c-0.049-0.012,0.048-0.675,0.353-1.713c0.304-1.037,0.844-2.441,1.645-3.89c0.804-1.447,1.708-2.649,2.426-3.457
						C295.933,182.314,296.445,181.881,296.481,181.916z"/>
				</g>
			</g>
		</g>
		<g>
			<g>
				<g>
					<path d="M334.466,187.022c0.06,0.018-0.178,0.951-0.509,2.466c-0.333,1.515-0.736,3.62-1.021,5.968
						c-0.282,2.348-0.392,4.488-0.429,6.039c-0.039,1.551-0.03,2.514-0.093,2.517c-0.051,0.003-0.162-0.957-0.198-2.517
						c-0.037-1.559,0.028-3.721,0.312-6.088c0.287-2.367,0.74-4.481,1.146-5.987C334.081,187.913,334.418,187.007,334.466,187.022z"
						/>
				</g>
			</g>
		</g>
		<g>
			<g>
				<g>
					<path d="M374.449,198.922c0.027,0.107-0.741,0.263-1.52-0.206c-0.783-0.461-1.013-1.21-0.906-1.238
						c0.107-0.053,0.453,0.501,1.116,0.884C373.793,198.763,374.445,198.803,374.449,198.922z"/>
				</g>
			</g>
		</g>
		<g>
			<g>
				<g>
					<path d="M306.74,316.865c-0.017,0.103-1.83-0.173-3.89-1.069c-2.065-0.886-3.509-2.016-3.445-2.099
						c0.068-0.102,1.587,0.856,3.608,1.722C305.03,316.297,306.768,316.746,306.74,316.865z"/>
				</g>
			</g>
		</g>
		<g>
			<g>
				<g>
					<path d="M347.609,320.069c-0.09,0.078-1.674-1.626-3.74-3.61c-2.06-1.99-3.822-3.51-3.747-3.602
						c0.066-0.085,1.956,1.302,4.032,3.306C346.236,318.163,347.692,320,347.609,320.069z"/>
				</g>
			</g>
		</g>
		<g>
			<g>
				<g>
					<path d="M262.13,338.903c-0.12-0.029,0.267-1.762,0.352-3.933c0.098-2.17-0.142-3.93-0.02-3.949
						c0.101-0.024,0.531,1.743,0.431,3.966C262.805,337.211,262.229,338.936,262.13,338.903z"/>
				</g>
			</g>
		</g>
		<g>
			<g>
				<g>
					<path d="M263.462,357.784c-0.064,0.085-1.549-1.899-1.779-4.838c-0.14-1.455,0.165-2.754,0.24-3.654
						c0.09-0.913-0.062-1.47-0.001-1.488c0.045-0.023,0.309,0.54,0.291,1.501c-0.006,0.958-0.257,2.214-0.121,3.607
						C262.307,355.728,263.58,357.734,263.462,357.784z"/>
				</g>
			</g>
		</g>
		<g>
			<g>
				<g>
					<path d="M320.643,367.241c0.104,0.044-0.355,1.366-1.027,2.952c-0.672,1.586-1.301,2.836-1.405,2.791
						c-0.104-0.044,0.355-1.366,1.027-2.952C319.909,368.446,320.539,367.197,320.643,367.241z"/>
				</g>
			</g>
		</g>
		<g>
			<g>
				<g>
					<path d="M268.98,404.397c0.001,0.048-0.491,0.119-1.278-0.018c-0.769-0.134-1.893-0.527-2.706-1.506
						c-0.809-0.999-0.883-2.256-0.63-3.024c0.253-0.796,0.719-1.091,0.735-1.056c0.058,0.047-0.301,0.4-0.454,1.129
						c-0.16,0.707-0.042,1.819,0.667,2.691c0.721,0.872,1.731,1.285,2.453,1.484C268.5,404.298,268.983,404.332,268.98,404.397z"/>
				</g>
			</g>
		</g>
		<g>
			<g>
				<g>
					<path d="M192.701,309.291c-0.02,0.051-0.53-0.09-1.332-0.386c-0.799-0.3-1.899-0.755-3.022-1.448
						c-1.126-0.689-2.012-1.533-2.511-2.246c-0.507-0.709-0.674-1.227-0.634-1.244c0.061-0.032,0.318,0.43,0.862,1.064
						c0.537,0.64,1.407,1.407,2.5,2.077C190.762,308.422,192.761,309.153,192.701,309.291z"/>
				</g>
			</g>
		</g>
		<g>
			<g>
				<g>
					<path d="M61.915,344.499c-0.028-0.004-0.017-0.263,0.027-0.729c0.043-0.466,0.126-1.137,0.245-1.964
						c0.237-1.654,0.635-3.93,1.195-6.419c0.561-2.489,1.175-4.716,1.67-6.312c0.247-0.798,0.459-1.44,0.62-1.879
						c0.159-0.44,0.26-0.678,0.287-0.67c0.057,0.018-0.207,1.016-0.628,2.629c-0.422,1.613-0.99,3.843-1.549,6.323
						c-0.557,2.48-1,4.739-1.309,6.377C62.164,343.492,61.974,344.508,61.915,344.499z"/>
				</g>
			</g>
		</g>
		<g>
			<g>
				<g>
					<path d="M129.233,336.203c0.081,0.065-0.875,1.193-2.474,2.004c-1.593,0.823-3.067,0.938-3.073,0.834
						c-0.023-0.121,1.361-0.411,2.886-1.2C128.104,337.067,129.148,336.114,129.233,336.203z"/>
				</g>
			</g>
		</g>
		<g>
			<g>
				<g>
					<path d="M84.439,385.574c-0.08,0.066-0.947-1.075-1.314-2.769c-0.381-1.69-0.076-3.09,0.025-3.065
						c0.123,0.012,0.012,1.369,0.376,2.976C83.873,384.328,84.546,385.511,84.439,385.574z"/>
				</g>
			</g>
		</g>
		<g>
			<g>
				<g>
					<path d="M178.931,398.856c-0.088-0.004,0.138-0.84-0.293-2.068c-0.417-1.228-1.536-2.675-2.985-4.057
						c-1.435-1.41-2.775-2.646-3.75-3.536c-0.975-0.89-1.579-1.442-1.542-1.487c0.035-0.043,0.705,0.43,1.732,1.267
						c1.027,0.837,2.405,2.045,3.848,3.462c1.464,1.395,2.605,2.937,2.974,4.261c0.186,0.655,0.21,1.216,0.158,1.59
						C179.028,398.665,178.952,398.861,178.931,398.856z"/>
				</g>
			</g>
		</g>
		<g>
			<g>
				<g>
					<path d="M181.712,399.776c0.112,0.047-0.2,0.888-0.09,1.947c0.09,1.061,0.555,1.829,0.454,1.896
						c-0.074,0.078-0.756-0.67-0.863-1.857C181.095,400.576,181.625,399.713,181.712,399.776z"/>
				</g>
			</g>
		</g>
		<g>
			<g>
				<g>
					<path d="M206.805,394.01c0.087,0.092-1.264,1.082-1.942,2.931c-0.716,1.835-0.359,3.471-0.485,3.482
						c-0.046,0.012-0.207-0.375-0.27-1.045c-0.066-0.666,0.007-1.616,0.371-2.583c0.368-0.965,0.941-1.726,1.432-2.181
						C206.401,394.154,206.778,393.97,206.805,394.01z"/>
				</g>
			</g>
		</g>
		<g>
			<g>
				<g>
					<path d="M296.691,396.241c0.075,0.103-1.268,1.025-2.38,2.644c-1.132,1.605-1.53,3.186-1.652,3.151
						c-0.102-0.004,0.13-1.7,1.314-3.386C295.142,396.953,296.652,396.147,296.691,396.241z"/>
				</g>
			</g>
		</g>
		<g>
			<g>
				<g>
					<path d="M113.491,402.029c0.049,0.111-0.891,0.522-1.587,1.509c-0.717,0.971-0.812,1.992-0.933,1.981
						c-0.107,0.025-0.198-1.13,0.6-2.221C112.356,402.197,113.481,401.92,113.491,402.029z"/>
				</g>
			</g>
		</g>
		<g>
			<g>
				<g>
					<path d="M344.66,375.263c0.052,0.107-0.651,0.533-1.399,1.193c-0.754,0.653-1.27,1.293-1.369,1.227
						c-0.093-0.054,0.296-0.839,1.098-1.537C343.789,375.444,344.619,375.163,344.66,375.263z"/>
				</g>
			</g>
		</g>
		<g>
			<g>
				<g>
					<path d="M296.039,145.786c0.027,0.061-0.885,0.494-2.3,1.295c-1.415,0.799-3.315,2.001-5.248,3.55
						c-1.93,1.553-3.513,3.15-4.599,4.359c-1.087,1.208-1.707,2.006-1.761,1.966c-0.023-0.017,0.108-0.234,0.366-0.612
						c0.255-0.381,0.654-0.91,1.174-1.544c1.037-1.268,2.608-2.917,4.561-4.489c1.956-1.568,3.906-2.746,5.368-3.485
						c0.731-0.371,1.334-0.647,1.761-0.814C295.787,145.842,296.027,145.76,296.039,145.786z"/>
				</g>
			</g>
		</g>
		<g>
			<g>
				<g>
					<path d="M256.599,212.337c0.053,0.043-0.634,0.924-1.613,2.43c-0.981,1.504-2.214,3.665-3.26,6.197
						c-1.039,2.534-1.685,4.937-2.047,6.696c-0.365,1.759-0.497,2.869-0.565,2.861c-0.028-0.003-0.022-0.283,0.013-0.788
						c0.031-0.506,0.119-1.234,0.266-2.128c0.292-1.787,0.9-4.234,1.952-6.799c1.058-2.562,2.348-4.728,3.399-6.203
						c0.524-0.739,0.974-1.318,1.309-1.699C256.384,212.522,256.577,212.319,256.599,212.337z"/>
				</g>
			</g>
		</g>
		<g>
			<g>
				<g>
					<path d="M160.124,255.965c-0.062,0.005-0.163-0.74-0.376-1.93c-0.212-1.191-0.561-2.824-1.099-4.587
						c-0.541-1.761-1.166-3.31-1.657-4.416c-0.49-1.106-0.823-1.78-0.768-1.81c0.044-0.025,0.469,0.601,1.031,1.685
						c0.562,1.083,1.24,2.636,1.787,4.421c0.545,1.785,0.853,3.452,0.993,4.664C160.176,255.205,160.175,255.961,160.124,255.965z"
						/>
				</g>
			</g>
		</g>
		<g>
			<g>
				<g>
					<path d="M249.885,262.764c-0.004-0.028,0.214-0.077,0.617-0.142c0.401-0.076,0.996-0.106,1.725-0.073
						c0.732,0.025,1.598,0.175,2.531,0.443c0.925,0.291,1.911,0.716,2.865,1.308c0.945,0.606,1.753,1.313,2.415,2.022
						c0.644,0.726,1.152,1.443,1.49,2.093c0.345,0.644,0.573,1.194,0.678,1.589c0.115,0.392,0.165,0.61,0.138,0.618
						c-0.077,0.026-0.33-0.84-1.067-2.061c-0.361-0.615-0.878-1.291-1.516-1.98c-0.656-0.672-1.444-1.347-2.357-1.933
						c-0.922-0.572-1.87-0.992-2.759-1.294c-0.896-0.279-1.73-0.454-2.44-0.515C250.786,262.7,249.895,262.844,249.885,262.764z"/>
				</g>
			</g>
		</g>
		<g>
			<g>
				<g>
					<path d="M160.468,153.927c0.01,0.063-1.094,0.264-2.859,0.663c-1.764,0.398-4.184,1.025-6.794,1.915
						c-2.609,0.894-4.906,1.881-6.544,2.646c-1.639,0.765-2.635,1.282-2.666,1.226c-0.014-0.025,0.22-0.182,0.654-0.446
						c0.433-0.266,1.076-0.624,1.884-1.041c1.614-0.837,3.911-1.873,6.539-2.774c2.63-0.897,5.08-1.484,6.868-1.811
						c0.894-0.164,1.621-0.276,2.127-0.33C160.183,153.917,160.464,153.899,160.468,153.927z"/>
				</g>
			</g>
		</g>
		<g>
			<g>
				<g>
					<path d="M180.184,154.423c-0.028,0.119-1.175-0.113-2.588,0.001c-1.413,0.099-2.512,0.5-2.558,0.387
						c-0.051-0.092,1.033-0.69,2.528-0.797C179.059,153.896,180.221,154.325,180.184,154.423z"/>
				</g>
			</g>
		</g>
		<g>
			<g>
				<g>
					<path d="M361.137,215.455c-0.091,0.055-0.606-1.385-0.059-3.1c0.525-1.721,1.768-2.613,1.812-2.516
						c0.091,0.086-0.939,1.045-1.419,2.638C360.959,214.062,361.261,215.436,361.137,215.455z"/>
				</g>
			</g>
		</g>
		<g>
			<g>
				<g>
					<path d="M412.037,216.304c-0.085,0.087-0.994-1.116-2.702-1.476c-1.697-0.404-3.034,0.296-3.073,0.18
						c-0.024-0.04,0.265-0.283,0.835-0.481c0.565-0.2,1.423-0.302,2.328-0.101c0.905,0.205,1.636,0.663,2.062,1.085
						C411.919,215.935,412.076,216.279,412.037,216.304z"/>
				</g>
			</g>
		</g>
		<g>
			<g>
				<g>
					<path d="M405.744,272.857c-0.004,0.117-0.678,0.179-1.489,0.318c-0.812,0.133-1.469,0.294-1.512,0.185
						c-0.042-0.102,0.584-0.449,1.444-0.591C405.046,272.623,405.751,272.747,405.744,272.857z"/>
				</g>
			</g>
		</g>
		<g>
			<g>
				<g>
					<path d="M413.745,305.738c0.002,0.054-0.397,0.118-1.04,0.077c-0.642-0.031-1.51-0.197-2.452-0.304
						c-0.94-0.105-1.793-0.042-2.379,0.129c-0.589,0.163-0.915,0.386-0.953,0.333c-0.032-0.034,0.244-0.355,0.859-0.608
						c0.609-0.259,1.535-0.374,2.517-0.263c0.979,0.112,1.825,0.321,2.443,0.424C413.356,305.639,413.744,305.678,413.745,305.738z"
						/>
				</g>
			</g>
		</g>
		<g>
			<g>
				<g>
					<path d="M415.441,330.776c0.015,0.113-0.564,0.281-1.293,0.377c-0.729,0.096-1.331,0.082-1.346-0.031
						c-0.015-0.113,0.564-0.281,1.293-0.377C414.824,330.65,415.427,330.664,415.441,330.776z"/>
				</g>
			</g>
		</g>
		<g>
			<g>
				<g>
					<path d="M68.124,320.107c0.096,0.056-0.076,0.508-0.515,0.886c-0.437,0.38-0.91,0.485-0.951,0.382
						c-0.047-0.106,0.299-0.358,0.682-0.693C67.727,320.351,68.025,320.045,68.124,320.107z"/>
				</g>
			</g>
		</g>
		<g>
			<g>
				<g>
					<path d="M68.778,320.63c0.083,0.083-0.19,0.476-0.425,0.996c-0.242,0.516-0.363,0.979-0.48,0.971
						c-0.11-0.002-0.169-0.548,0.106-1.142C68.252,320.858,68.705,320.548,68.778,320.63z"/>
				</g>
			</g>
		</g>
	</g>
</g>
</svg>
